<svg width="365" height="247" viewBox="0 0 365 247" fill="none" xmlns="http://www.w3.org/2000/svg">
<path d="M111.717 114.546H64.7332V167.118H111.717V114.546Z" fill="#CCCCCC"/>
<path d="M40.8145 246.189H16.8957L14.333 225.673H43.3773L40.8145 246.189Z" fill="#E6E6E6"/>
<path d="M88.8444 231.329L88.0372 242.371C88.0007 242.871 88.0714 243.373 88.2445 243.843C88.4177 244.313 88.6894 244.741 89.0413 245.098C89.3932 245.454 89.8172 245.731 90.2849 245.911C90.7527 246.09 91.2532 246.167 91.7531 246.136L97.421 245.793C97.6836 245.777 97.9395 245.703 98.1705 245.577C98.4015 245.451 98.6018 245.276 98.7574 245.063C98.9129 244.851 99.0199 244.607 99.0705 244.349C99.1212 244.09 99.1144 243.824 99.0506 243.568L95.9045 230.976L88.8444 231.329Z" fill="#E6E6E6"/>
<path d="M136.253 237.859C142.924 239.42 147.689 241.64 150.819 244.644C151.934 245.705 153.393 246.331 154.93 246.407C156.893 246.51 158.498 246.29 159.705 245.751H159.705C160.014 245.614 160.281 245.398 160.478 245.123C160.675 244.849 160.795 244.527 160.826 244.19C160.862 243.848 160.807 243.503 160.665 243.19C160.523 242.877 160.3 242.607 160.019 242.409L144.199 231.145L137.479 233.835L135.911 235.404C135.742 235.574 135.614 235.781 135.537 236.008C135.461 236.236 135.439 236.478 135.472 236.716C135.505 236.954 135.593 237.181 135.728 237.379C135.864 237.578 136.043 237.742 136.253 237.859H136.253Z" fill="#E6E6E6"/>
<path d="M115.725 57.57L70.5038 57.151C70.6175 50.5601 72.1499 44.0879 75.4997 38.2963C77.6997 34.4925 77.6521 30.3529 77.122 26.8654C76.3038 21.4834 78.2064 15.9769 82.4341 12.5509C85.665 9.92814 89.7427 8.57805 93.8992 8.7549L94.7773 8.79151C97.6375 8.91045 100.422 9.74652 102.875 11.223C105.328 12.6994 107.371 14.7689 108.817 17.2414C110.286 19.8809 110.879 22.9195 110.509 25.9181C110.222 28.7396 110.908 31.5898 112.512 34.4672C115.28 40.7854 115.88 48.8704 115.725 57.57Z" fill="#2F2E41"/>
<path d="M145.98 231.732L137.105 234.049L93.8868 139.832L96.5879 231.732H87.7128C78.2292 188.496 61.1072 138.597 68.8051 122.843L114.724 120.14L145.98 231.732Z" fill="#B02828"/>
<path d="M93.5009 41.7543C100.107 41.7543 105.463 36.3951 105.463 29.7842C105.463 23.1732 100.107 17.814 93.5009 17.814C86.8944 17.814 81.5388 23.1732 81.5388 29.7842C81.5388 36.3951 86.8944 41.7543 93.5009 41.7543Z" fill="#FFB9B9"/>
<path d="M103.919 51.7938L84.2399 50.6354C86.1685 46.2058 86.9389 41.9403 86.1693 37.893H100.832C100.799 41.0005 102.345 46.376 103.919 51.7938Z" fill="#FFB9B9"/>
<path d="M116.267 123.615L73.0499 126.704L77.4872 50.0563L85.0118 47.9325L93.5009 49.8632L101.99 45.6155L107.392 47.5466L116.267 123.615Z" fill="#B02828"/>
<path d="M80.3813 178.832L50.862 172.075C59.6396 142.947 75.4529 76.3126 70.3486 52.5661L85.7835 45.6157L80.3813 178.832Z" fill="#E6E6E6"/>
<path d="M66.1039 94.6548L54.9136 87.7043L64.457 59.7348C65.5214 56.8487 67.5601 54.4254 70.2207 52.8841L73.4355 51.0216L71.5061 79.2094L66.1039 94.6548Z" fill="#E6E6E6"/>
<path d="M141.928 172.461C132.611 177.855 109.322 180.862 99.096 177.095C98.3436 150.778 96.8679 76.3369 101.604 44.8435L118.583 51.7939L117.039 72.6451C108.922 90.4823 132.492 152.609 141.928 172.461Z" fill="#E6E6E6"/>
<path d="M140.577 91.1797L130.159 87.7045L116.267 71.8727L118.583 51.7938L141.735 84.2292L140.577 91.1797Z" fill="#E6E6E6"/>
<path d="M107.926 106.209C108.096 106.958 108.556 107.608 109.205 108.018C109.854 108.427 110.639 108.563 111.388 108.394L120.232 106.39L118.953 100.741L110.109 102.745C109.361 102.915 108.71 103.375 108.301 104.025C107.891 104.674 107.756 105.46 107.926 106.209Z" fill="#FFB9B9"/>
<path d="M103.919 26.6951C97.2753 23.9612 90.7132 23.7633 84.24 26.309L81.5388 16.6556H106.235L103.919 26.6951Z" fill="#2F2E41"/>
<path d="M115.882 99.6745L120.898 108.942C129.335 106.587 136.648 99.1631 143.664 90.4073L141.735 84.2291L129.773 87.3182L115.882 99.6745Z" fill="#E6E6E6"/>
<path d="M112.216 80.5609H110.672C110.672 58.7157 106.177 43.492 101.797 43.492L101.411 41.9475C105.339 41.9475 107.844 48.2834 109.253 53.5988C111.164 60.8047 112.216 70.38 112.216 80.5609Z" fill="#3F3D56"/>
<path d="M76.7154 75.155H75.1719C75.1719 55.1482 79.6978 42.7197 86.3622 42.7197L85.9763 44.2642C81.3666 44.2642 76.7154 53.8159 76.7154 75.155Z" fill="#3F3D56"/>
<path d="M111.444 84.8084C113.575 84.8084 115.303 83.0796 115.303 80.947C115.303 78.8145 113.575 77.0857 111.444 77.0857C109.313 77.0857 107.585 78.8145 107.585 80.947C107.585 83.0796 109.313 84.8084 111.444 84.8084Z" fill="#3F3D56"/>
<path d="M70.5415 84.4222H68.998C68.998 78.8864 72.1138 74.3827 75.9437 74.3827V75.9272C72.9649 75.9272 70.5415 79.738 70.5415 84.4222Z" fill="#3F3D56"/>
<path d="M82.8894 84.4222H81.3459C81.3459 79.738 78.9225 75.9272 75.9437 75.9272V74.3827C79.7736 74.3827 82.8894 78.8864 82.8894 84.4222Z" fill="#3F3D56"/>
<path d="M82.1177 86.3529C82.9701 86.3529 83.6612 85.6614 83.6612 84.8084C83.6612 83.9554 82.9701 83.2639 82.1177 83.2639C81.2652 83.2639 80.5742 83.9554 80.5742 84.8084C80.5742 85.6614 81.2652 86.3529 82.1177 86.3529Z" fill="#3F3D56"/>
<path d="M69.7697 86.3529C70.6222 86.3529 71.3132 85.6614 71.3132 84.8084C71.3132 83.9554 70.6222 83.2639 69.7697 83.2639C68.9173 83.2639 68.2262 83.9554 68.2262 84.8084C68.2262 85.6614 68.9173 86.3529 69.7697 86.3529Z" fill="#3F3D56"/>
<path d="M50.476 70.6054L60.1063 72.3262L82.1176 103.645L70.4239 100.892L50.476 70.6054Z" fill="#B02828"/>
<path d="M48.7679 70.2219C48.6212 70.2241 48.4777 70.2658 48.3526 70.3424C48.2274 70.4191 48.1251 70.5281 48.0564 70.6579C47.9877 70.7876 47.9551 70.9335 47.9621 71.0802C47.969 71.2269 48.0152 71.3691 48.0959 71.4918L68.6709 102.73C68.7857 102.905 68.9631 103.029 69.1664 103.077L78.7394 105.331C78.9008 105.369 79.0699 105.357 79.2244 105.296C79.3788 105.236 79.5112 105.13 79.6041 104.992C79.697 104.855 79.7459 104.692 79.7444 104.527C79.7428 104.361 79.6909 104.199 79.5955 104.063L57.0054 71.9213C56.9441 71.8337 56.8662 71.7591 56.7761 71.7016C56.686 71.6442 56.5855 71.6051 56.4803 71.5866L48.9222 70.2359C48.8713 70.2267 48.8197 70.2221 48.7679 70.2219Z" fill="#3F3D56"/>
<path d="M61.6027 92.5572L62.1746 98.321L71.1981 97.4246C71.9619 97.3488 72.6643 96.9724 73.1508 96.3783C73.6373 95.7842 73.868 95.0211 73.7922 94.2567C73.7164 93.4924 73.3403 92.7895 72.7466 92.3027C72.1529 91.8159 71.3903 91.585 70.6265 91.6609L61.6027 92.5572Z" fill="#FFB9B9"/>
<path d="M53.7562 91.8896C53.7693 93.8549 54.5581 95.7354 55.9507 97.1213C57.3433 98.5072 59.2268 99.2861 61.1909 99.2884H62.6746L63.7548 90.2804L54.811 87.0584L53.7562 91.8896Z" fill="#E6E6E6"/>
<path d="M365 0H189.026V92.7483H365V0Z" fill="#E6E6E6"/>
<path d="M194.151 87.6194H359.874V5.12892H194.151V87.6194Z" fill="white"/>
<path d="M265.908 17.0965H206.965V76.0793H265.908V17.0965Z" fill="#3F3D56"/>
<path d="M251.813 44.0234C252.756 44.0234 253.521 43.258 253.521 42.3137C253.521 41.3695 252.756 40.6041 251.813 40.6041C250.869 40.6041 250.104 41.3695 250.104 42.3137C250.104 43.258 250.869 44.0234 251.813 44.0234Z" fill="#B02828"/>
<path d="M245.406 38.0397C246.349 38.0397 247.114 37.2742 247.114 36.33C247.114 35.3858 246.349 34.6204 245.406 34.6204C244.462 34.6204 243.697 35.3858 243.697 36.33C243.697 37.2742 244.462 38.0397 245.406 38.0397Z" fill="#B02828"/>
<path d="M244.552 42.3138C243.923 42.3139 243.307 42.4886 242.771 42.8185C242.3 42.1091 241.746 41.4583 241.121 40.8799C241.128 40.7886 241.135 40.6972 241.135 40.6041C241.135 39.9332 240.938 39.277 240.568 38.7174C240.199 38.1577 239.673 37.7194 239.056 37.457C238.439 37.1946 237.758 37.1198 237.099 37.2419C236.439 37.364 235.831 37.6776 235.348 38.1436C234.433 38.0136 233.505 38.0055 232.588 38.1195C232.589 38.0927 232.592 38.0666 232.592 38.0397C232.593 37.4673 232.45 36.904 232.177 36.4012C231.903 35.8985 231.508 35.4725 231.028 35.1622C230.547 34.8519 229.996 34.6673 229.426 34.6253C228.856 34.5833 228.284 34.6852 227.763 34.9218C227.242 35.1583 226.789 35.5219 226.445 35.9792C226.101 36.4364 225.877 36.9728 225.794 37.5391C225.711 38.1053 225.772 38.6834 225.97 39.2203C226.168 39.7571 226.498 40.2356 226.929 40.6119C226.357 41.1022 225.838 41.6514 225.381 42.2504C224.959 41.8992 224.459 41.6548 223.923 41.5379C223.387 41.421 222.83 41.435 222.301 41.5787C221.771 41.7225 221.284 41.9917 220.88 42.3637C220.477 42.7357 220.169 43.1995 219.982 43.7158C219.796 44.2322 219.736 44.7859 219.808 45.3301C219.881 45.8744 220.083 46.3932 220.399 46.8426C220.714 47.292 221.132 47.6589 221.619 47.9121C222.106 48.1654 222.647 48.2976 223.195 48.2975L223.206 48.297C223.201 48.4391 223.195 48.5814 223.195 48.7249C223.196 49.5853 223.299 50.4424 223.505 51.2779C222.489 51.6603 221.587 52.2946 220.884 53.1213C220.18 53.9479 219.698 54.9399 219.483 56.0041C219.268 57.0683 219.326 58.1697 219.653 59.2051C219.98 60.2405 220.564 61.1759 221.351 61.9235C222.137 62.671 223.101 63.2063 224.152 63.479C225.202 63.7517 226.304 63.7528 227.355 63.4824C228.406 63.212 229.371 62.6789 230.159 61.933C230.948 61.1872 231.534 60.2531 231.863 59.2184C234.24 59.6755 236.701 59.3102 238.843 58.1822C239.062 58.6975 239.403 59.1511 239.838 59.5033C240.273 59.8556 240.788 60.0956 241.337 60.2023C241.886 60.3091 242.453 60.2793 242.988 60.1156C243.523 59.9519 244.009 59.6593 244.405 59.2635C244.8 58.8676 245.093 58.3807 245.256 57.8454C245.42 57.3101 245.45 56.7428 245.343 56.1932C245.236 55.6437 244.997 55.1288 244.645 54.6937C244.293 54.2587 243.839 53.9167 243.324 53.6978C244.064 52.2925 244.48 50.7391 244.541 49.1518L244.552 49.1524C245.458 49.1524 246.327 48.7921 246.968 48.1509C247.609 47.5096 247.969 46.6399 247.969 45.7331C247.969 44.8262 247.609 43.9565 246.968 43.3153C246.327 42.674 245.458 42.3138 244.552 42.3138V42.3138Z" fill="#B02828"/>
<path d="M243.697 15.8142H226.612V18.3787H243.697V15.8142Z" fill="#E6E6E6"/>
<path d="M341.081 17.0965H282.138V76.0793H341.081V17.0965Z" fill="#3F3D56"/>
<path d="M322.8 57.1022C323.225 57.1022 323.569 56.7577 323.569 56.3328C323.569 55.9079 323.225 55.5635 322.8 55.5635C322.376 55.5635 322.032 55.9079 322.032 56.3328C322.032 56.7577 322.376 57.1022 322.8 57.1022Z" fill="#B02828"/>
<path d="M319.917 54.4095C320.342 54.4095 320.686 54.0651 320.686 53.6402C320.686 53.2153 320.342 52.8708 319.917 52.8708C319.493 52.8708 319.148 53.2153 319.148 53.6402C319.148 54.0651 319.493 54.4095 319.917 54.4095Z" fill="#B02828"/>
<path d="M319.533 56.3329C319.25 56.3329 318.973 56.4116 318.732 56.56C318.52 56.2408 318.27 55.9479 317.989 55.6876C317.992 55.6466 317.995 55.6054 317.995 55.5635C317.995 55.2616 317.907 54.9663 317.74 54.7145C317.574 54.4627 317.337 54.2654 317.06 54.1473C316.782 54.0293 316.476 53.9956 316.179 54.0505C315.882 54.1055 315.608 54.2466 315.391 54.4563C314.98 54.3978 314.562 54.3942 314.149 54.4454C314.15 54.4334 314.151 54.4216 314.151 54.4095C314.151 54.152 314.087 53.8985 313.964 53.6722C313.841 53.446 313.663 53.2543 313.447 53.1147C313.231 52.975 312.983 52.892 312.726 52.8731C312.47 52.8542 312.212 52.9 311.978 53.0065C311.744 53.1129 311.54 53.2765 311.385 53.4823C311.23 53.6881 311.129 53.9294 311.092 54.1843C311.055 54.4391 311.082 54.6992 311.171 54.9408C311.26 55.1824 311.409 55.3977 311.603 55.567C311.345 55.7877 311.112 56.0348 310.906 56.3044C310.716 56.1463 310.491 56.0363 310.25 55.9837C310.009 55.9311 309.758 55.9374 309.52 56.0021C309.282 56.0668 309.062 56.188 308.881 56.3554C308.699 56.5228 308.561 56.7314 308.477 56.9638C308.393 57.1962 308.366 57.4453 308.398 57.6902C308.431 57.9352 308.522 58.1686 308.664 58.3708C308.806 58.5731 308.994 58.7382 309.213 58.8521C309.432 58.9661 309.676 59.0256 309.923 59.0256L309.927 59.0253C309.925 59.0893 309.923 59.1533 309.923 59.2179C309.923 59.605 309.969 59.9908 310.062 60.3667C309.605 60.5388 309.199 60.8242 308.882 61.1962C308.566 61.5683 308.349 62.0146 308.252 62.4935C308.155 62.9724 308.181 63.4681 308.328 63.934C308.475 64.3999 308.738 64.8208 309.092 65.1572C309.446 65.4936 309.88 65.7345 310.353 65.8572C310.825 65.9799 311.321 65.9804 311.794 65.8588C312.267 65.7371 312.701 65.4972 313.056 65.1615C313.411 64.8259 313.675 64.4056 313.823 63.94C314.892 64.1457 316 63.9812 316.964 63.4737C317.062 63.7055 317.216 63.9097 317.412 64.0682C317.607 64.2267 317.839 64.3347 318.086 64.3827C318.333 64.4308 318.588 64.4174 318.829 64.3437C319.07 64.27 319.289 64.1384 319.467 63.9602C319.645 63.7821 319.776 63.563 319.85 63.3221C319.924 63.0812 319.937 62.8259 319.889 62.5786C319.841 62.3314 319.733 62.0997 319.575 61.9039C319.416 61.7081 319.212 61.5542 318.981 61.4557C319.314 60.8233 319.501 60.1243 319.528 59.41L319.533 59.4102C319.941 59.4102 320.332 59.2481 320.62 58.9596C320.908 58.671 321.07 58.2796 321.07 57.8716C321.07 57.4635 320.908 57.0721 320.62 56.7836C320.332 56.495 319.941 56.3329 319.533 56.3329V56.3329Z" fill="#B02828"/>
<path d="M328.832 42.5026C329.257 42.5026 329.601 42.1581 329.601 41.7332C329.601 41.3083 329.257 40.9639 328.832 40.9639C328.407 40.9639 328.063 41.3083 328.063 41.7332C328.063 42.1581 328.407 42.5026 328.832 42.5026Z" fill="#B02828"/>
<path d="M330.641 38.9956C331.065 38.9956 331.41 38.6511 331.41 38.2262C331.41 37.8014 331.065 37.4569 330.641 37.4569C330.216 37.4569 329.872 37.8014 329.872 38.2262C329.872 38.6511 330.216 38.9956 330.641 38.9956Z" fill="#B02828"/>
<path d="M327.946 38.586C327.87 38.3135 327.719 38.0677 327.511 37.8759C327.76 37.585 327.974 37.2655 328.148 36.9239C328.189 36.916 328.229 36.9077 328.27 36.8963C328.56 36.8147 328.82 36.6493 329.017 36.4208C329.214 36.1923 329.34 35.9107 329.378 35.6113C329.417 35.3118 329.366 35.0077 329.233 34.7369C329.099 34.466 328.889 34.2404 328.629 34.0882C328.573 33.6757 328.464 33.2724 328.303 32.8888C328.314 32.8858 328.326 32.8841 328.338 32.8808C328.585 32.8113 328.812 32.6807 328.996 32.5009C329.18 32.3211 329.317 32.0979 329.392 31.8517C329.468 31.6056 329.481 31.3443 329.429 31.092C329.378 30.8396 329.264 30.6042 329.098 30.4073C328.932 30.2104 328.719 30.0584 328.48 29.9651C328.24 29.8718 327.98 29.8402 327.725 29.8733C327.47 29.9064 327.227 30.0031 327.019 30.1545C326.811 30.3059 326.644 30.5071 326.533 30.7398C326.251 30.5517 325.95 30.3938 325.635 30.2687C325.736 30.0431 325.781 29.7965 325.766 29.5498C325.751 29.3032 325.677 29.0638 325.55 28.8518C325.423 28.6398 325.247 28.4614 325.037 28.3319C324.827 28.2023 324.589 28.1254 324.342 28.1075C324.096 28.0896 323.849 28.1313 323.622 28.2291C323.396 28.3269 323.196 28.4779 323.04 28.6694C322.884 28.8608 322.776 29.0871 322.726 29.329C322.675 29.5709 322.684 29.8213 322.751 30.0592L322.753 30.0638C322.69 30.0787 322.628 30.0938 322.566 30.1113C322.194 30.2163 321.835 30.3658 321.499 30.5567C321.209 30.1631 320.825 29.8497 320.381 29.6456C319.937 29.4416 319.449 29.3537 318.962 29.3901C318.476 29.4266 318.006 29.5863 317.598 29.8542C317.189 30.1221 316.856 30.4894 316.628 30.9216C316.4 31.3539 316.286 31.837 316.296 32.3254C316.306 32.8139 316.44 33.2919 316.686 33.7144C316.931 34.1368 317.279 34.4901 317.698 34.7409C318.117 34.9917 318.593 35.1318 319.081 35.1481C319.173 36.2341 319.632 37.2565 320.381 38.0473C320.185 38.2049 320.03 38.4084 319.931 38.6398C319.831 38.8712 319.79 39.1235 319.811 39.3746C319.832 39.6256 319.914 39.8677 320.05 40.0796C320.186 40.2915 320.372 40.4668 320.592 40.5899C320.811 40.7131 321.058 40.7804 321.309 40.786C321.561 40.7917 321.81 40.7353 322.035 40.6221C322.26 40.5088 322.453 40.342 322.599 40.1364C322.744 39.9308 322.837 39.6926 322.869 39.4427C323.567 39.592 324.291 39.5827 324.985 39.4154L324.986 39.4201C325.041 39.6148 325.133 39.7967 325.258 39.9556C325.383 40.1145 325.538 40.2471 325.714 40.3461C325.89 40.445 326.084 40.5082 326.285 40.532C326.486 40.5559 326.689 40.54 326.883 40.4852C327.078 40.4304 327.26 40.3378 327.418 40.2127C327.577 40.0875 327.709 39.9324 327.808 39.756C327.907 39.5796 327.97 39.3855 327.994 39.1847C328.017 38.9839 328.001 38.7805 327.946 38.5859V38.586Z" fill="#B02828"/>
<path d="M299.055 32.048C299.479 32.048 299.823 31.7035 299.823 31.2786C299.823 30.8537 299.479 30.5093 299.055 30.5093C298.63 30.5093 298.286 30.8537 298.286 31.2786C298.286 31.7035 298.63 32.048 299.055 32.048Z" fill="#B02828"/>
<path d="M295.123 32.3631C295.548 32.3631 295.892 32.0187 295.892 31.5938C295.892 31.1689 295.548 30.8244 295.123 30.8244C294.699 30.8244 294.355 31.1689 294.355 31.5938C294.355 32.0187 294.699 32.3631 295.123 32.3631Z" fill="#B02828"/>
<path d="M296.852 33.6934C296.661 33.9025 296.532 34.1604 296.479 34.4385C296.1 34.3801 295.716 34.3669 295.334 34.3993C295.306 34.3692 295.278 34.3393 295.247 34.311C295.024 34.1073 294.747 33.9737 294.449 33.9268C294.151 33.88 293.845 33.922 293.571 34.0476C293.297 34.1732 293.065 34.3768 292.906 34.6331C292.746 34.8894 292.666 35.1869 292.674 35.4887C292.354 35.7536 292.069 36.0598 291.829 36.3994C291.82 36.391 291.812 36.382 291.804 36.3738C291.614 36.1999 291.383 36.0765 291.133 36.0149C290.883 35.9533 290.622 35.9554 290.373 36.0211C290.124 36.0868 289.896 36.2139 289.709 36.3909C289.522 36.5678 289.382 36.7889 289.303 37.0339C289.223 37.2788 289.207 37.5398 289.254 37.7929C289.302 38.0461 289.412 38.2832 289.575 38.4826C289.738 38.682 289.948 38.8373 290.186 38.9343C290.425 39.0313 290.684 39.0668 290.939 39.0377C290.929 39.3767 290.954 39.7159 291.014 40.0496C290.769 40.0833 290.536 40.1755 290.335 40.3183C290.134 40.4611 289.969 40.6504 289.856 40.8701C289.743 41.0898 289.685 41.3335 289.686 41.5806C289.687 41.8277 289.748 42.0709 289.863 42.2896C289.978 42.5083 290.143 42.6961 290.346 42.8371C290.549 42.9782 290.783 43.0682 291.027 43.0998C291.272 43.1313 291.521 43.1034 291.753 43.0183C291.985 42.9332 292.193 42.7935 292.359 42.6111L292.362 42.6073C292.408 42.6523 292.454 42.6972 292.501 42.7407C292.787 43.0017 293.103 43.2273 293.443 43.4125C293.262 43.8663 293.199 44.3586 293.26 44.8434C293.321 45.3281 293.504 45.7894 293.792 46.1838C294.08 46.5783 294.464 46.8931 294.907 47.0986C295.35 47.3041 295.838 47.3936 296.325 47.3588C296.812 47.3239 297.282 47.1657 297.691 46.8992C298.1 46.6327 298.435 46.2665 298.664 45.835C298.893 45.4034 299.009 44.9208 299.001 44.4323C298.992 43.9437 298.86 43.4654 298.616 43.0421C299.489 42.3903 300.114 41.4609 300.39 40.4064C300.627 40.49 300.881 40.5139 301.13 40.4762C301.379 40.4385 301.615 40.3402 301.817 40.1899C302.019 40.0397 302.181 39.8421 302.289 39.6146C302.397 39.387 302.448 39.1364 302.436 38.8848C302.425 38.6331 302.352 38.3881 302.224 38.1713C302.095 37.9545 301.916 37.7725 301.701 37.6412C301.486 37.51 301.243 37.4335 300.991 37.4186C300.74 37.4036 300.489 37.4506 300.26 37.5555C300.018 36.883 299.628 36.2734 299.119 35.7717L299.123 35.7682C299.259 35.6191 299.365 35.4444 299.434 35.2543C299.503 35.0642 299.534 34.8624 299.525 34.6603C299.516 34.4583 299.467 34.26 299.381 34.0769C299.295 33.8937 299.175 33.7292 299.025 33.5929C298.876 33.4565 298.701 33.3509 298.511 33.2822C298.321 33.2134 298.119 33.1828 297.918 33.1922C297.716 33.2015 297.518 33.2506 297.335 33.3366C297.152 33.4226 296.988 33.5438 296.852 33.6934Z" fill="#B02828"/>
<path d="M318.871 15.8142H301.786V18.3787H318.871V15.8142Z" fill="#E6E6E6"/>
<path d="M10.7534 218.084C16.9124 226.338 29.6971 227.206 29.6971 227.206C29.6971 227.206 32.4963 214.693 26.3373 206.439C20.1784 198.186 7.39362 197.317 7.39362 197.317C7.39362 197.317 4.59446 209.83 10.7534 218.084Z" fill="#E6E6E6"/>
<path d="M42.1284 221.187C38.0643 226.633 29.628 227.206 29.628 227.206C29.628 227.206 27.7809 218.949 31.845 213.503C35.9091 208.056 44.3454 207.483 44.3454 207.483C44.3454 207.483 46.1925 215.74 42.1284 221.187Z" fill="#E6E6E6"/>
</svg>
