<svg width="436" height="309" viewBox="0 0 436 309" fill="none" xmlns="http://www.w3.org/2000/svg">
<path opacity="0.1" d="M145.619 308.827C166.804 308.827 183.977 306.07 183.977 302.669C183.977 299.268 166.804 296.511 145.619 296.511C124.435 296.511 107.262 299.268 107.262 302.669C107.262 306.07 124.435 308.827 145.619 308.827Z" fill="#B02828"/>
<path opacity="0.1" d="M354.125 309C380.559 309 401.989 306.243 401.989 302.842C401.989 299.441 380.559 296.684 354.125 296.684C327.69 296.684 306.261 299.441 306.261 302.842C306.261 306.243 327.69 309 354.125 309Z" fill="#B02828"/>
<path opacity="0.1" d="M6.44813 134.078H46.3998V188.51H9.37295C9.27454 189.068 9.18006 189.631 9.07771 190.194H46.3998V234.091C46.3328 234.072 46.2738 234.048 46.2108 234.025C45.1558 233.607 44.1087 233.167 43.0616 232.695L42.3924 232.392C41.3427 231.896 40.2929 231.371 39.2432 230.818C38.8771 230.625 38.511 230.424 38.1488 230.219C32.3212 226.956 27.027 222.822 22.45 217.958C22.3162 217.828 22.1902 217.691 22.0564 217.565C21.4187 216.872 20.7928 216.172 20.1865 215.456L19.5173 214.669C18.8009 213.791 18.1081 212.89 17.4349 211.977C17.3365 211.844 17.242 211.71 17.1397 211.584C14.402 207.789 12.1289 203.681 10.3689 199.346C10.3138 199.216 10.2665 199.075 10.2154 198.953C9.67475 197.562 9.19581 196.159 8.77854 194.742C8.59746 194.148 8.42425 193.562 8.27467 192.944C8.21956 192.763 8.17232 192.586 8.12901 192.409C5.89308 183.685 5.62933 174.623 5.62933 165.624C5.62933 164.574 5.62933 163.519 5.62933 162.476C5.62933 158.837 5.67263 155.173 5.73562 151.514C5.73562 150.565 5.77498 149.621 5.79466 148.669C5.84978 146.253 5.92851 143.837 6.03086 141.421C6.05447 140.748 6.08597 140.079 6.1214 139.41C6.1214 139.024 6.14108 138.639 6.18044 138.253C6.27492 136.852 6.35365 135.463 6.44813 134.078Z" fill="#B02828"/>
<path opacity="0.1" d="M46.3997 73.4729H24.4852C28.0475 67.8994 31.9398 62.5437 36.1412 57.4343C39.3967 53.4364 42.8333 49.5409 46.3997 45.787V73.4729Z" fill="#B02828"/>
<path opacity="0.1" d="M46.3997 75.157V132.394H6.57407C6.57407 132.229 6.60162 132.06 6.61343 131.894C6.64886 131.442 6.68429 130.989 6.72366 130.541C6.76696 130.013 6.8142 129.482 6.86537 128.967C6.91655 128.451 6.97166 127.822 7.03071 127.251C7.08975 126.681 7.14486 126.102 7.21178 125.532C7.2787 124.961 7.33775 124.39 7.40861 123.824C7.47947 123.257 7.54245 122.683 7.61725 122.116C7.67629 121.644 7.73927 121.176 7.80226 120.703C7.8928 120.038 7.98728 119.369 8.08963 118.708C8.08963 118.61 8.11718 118.508 8.13293 118.413C8.85141 113.574 9.8304 108.777 11.0656 104.043C12.3586 99.0772 14.0097 94.2114 16.0059 89.4839C18.1276 84.5385 20.6117 79.7564 23.4381 75.1767L46.3997 75.157Z" fill="#B02828"/>
<path opacity="0.1" d="M55.9379 134.074V188.51H141.27V134.074H55.9379ZM55.9379 190.19V236.936C56.426 237.039 56.9102 237.137 57.3905 237.22C58.0439 237.346 58.6935 237.46 59.3587 237.558C59.4847 237.578 59.6146 237.597 59.7524 237.609C60.0122 237.652 60.2799 237.688 60.5397 237.723C61.1971 237.814 61.8505 237.889 62.5079 237.948C62.8189 237.979 63.1338 238.007 63.4488 238.03L64.2085 238.089C64.6218 238.121 65.0312 238.144 65.4367 238.156C65.6886 238.156 65.9406 238.18 66.2004 238.188C66.3972 238.188 66.594 238.188 66.7987 238.188C67.0034 238.188 67.2947 238.188 67.5427 238.188C67.8813 238.188 68.2198 238.188 68.5544 238.188H69.0071C69.3457 238.188 69.6842 238.188 70.0188 238.156H70.0424C70.2747 238.156 70.5109 238.156 70.7471 238.125C70.8126 238.129 70.8783 238.129 70.9439 238.125C71.1407 238.125 71.3375 238.125 71.5265 238.097H71.6643L72.983 237.995C73.416 237.955 73.853 237.904 74.2938 237.857L75.1914 237.751C78.8428 237.239 82.4536 236.472 85.9971 235.453C93.9567 233.234 101.743 230.129 109.699 227.855C119.985 224.923 131.35 223.483 141.289 227.068V190.19H55.9379ZM141.27 73.4729V1.00393C131.927 0.902757 122.61 1.99501 113.545 4.25416C91.9373 9.68038 72.55 21.4497 55.9379 36.481V73.469H60.2208V75.1492H55.9379V132.394H141.27V75.1531H77.8052V73.4729H141.27ZM250.874 48.9939C245.528 48.805 240.214 47.113 235.407 44.5003C226.216 39.5029 218.874 31.7866 210.67 25.2744C193.625 11.7108 172.486 3.5262 150.8 1.49579V73.4729H272.615L272.918 73.1542L250.874 48.9939ZM261.971 47.0265L273.737 59.9329V43.6425C269.797 44.1304 266.344 45.2912 261.987 47.0107L261.971 47.0265ZM273.737 248.544V190.19H248.665C248.599 189.942 248.532 189.69 248.453 189.438C248.528 189.69 248.591 189.942 248.662 190.19H150.816V232.392C151.745 233.08 152.662 233.804 153.571 234.54C154.551 235.327 155.52 236.157 156.492 236.972L157.472 237.782C157.941 238.176 158.413 238.569 158.889 238.939C159.834 239.705 160.788 240.461 161.751 241.206C162.228 241.599 162.716 241.953 163.2 242.323C170.887 248.198 178.996 253.499 187.461 258.185C189.358 259.234 191.272 260.258 193.204 261.258C194.491 261.915 195.786 262.568 197.085 263.202C199.038 264.154 201.006 265.072 202.99 265.956C221.282 274.164 240.624 279.796 260.463 282.691C264.869 283.342 269.293 283.853 273.733 284.226V248.54H274.127L273.737 248.544ZM150.816 75.1531V132.394H273.753V75.1531H150.816ZM150.816 134.074V188.51H273.753V134.074H150.816ZM283.295 43.5716V61.743L298.313 45.2715C293.337 44.4688 288.331 43.8956 283.295 43.552V43.5716ZM283.295 134.094V188.51H402.866V134.074L283.295 134.094ZM402.429 252.865L402.851 190.19H283.295V284.852C290.997 285.175 298.71 285.083 306.402 284.576H306.536C310.21 284.345 313.867 284.009 317.507 283.569H317.59C337.009 281.31 355.997 276.245 373.961 268.534L402.429 252.865ZM425.923 143.038C425.474 141.979 425.005 140.929 424.529 139.89C423.639 137.923 422.699 136.01 421.73 134.098H412.401V188.51H435.988C435.976 173.101 432.075 157.361 425.934 143.018L425.923 143.038ZM412.401 190.209V244.117C419.045 237.751 424.659 230.467 428.702 222.141C433.563 212.115 435.787 201.259 435.969 190.202L412.401 190.209ZM412.401 118.232V132.398H420.856C418.298 127.522 415.48 122.786 412.412 118.213L412.401 118.232ZM331.309 54.2509C330.687 54.0148 330.065 53.7748 329.439 53.5427C322.838 51.1059 316.092 49.0795 309.24 47.4751L286.259 72.6859L285.818 73.1542L286.114 73.4768H367.906C356.515 65.6387 344.234 59.1784 331.32 54.2313L331.309 54.2509ZM370.304 75.1728H284.972L283.295 76.7074V132.394H297.994H298.017H402.882V105.42C393.396 93.9524 382.447 83.7766 370.315 75.1531L370.304 75.1728Z" fill="#B02828"/>
<path opacity="0.1" d="M46.3997 104.027V132.394H6.57407C6.57407 132.229 6.60162 132.06 6.61343 131.894C6.64886 131.442 6.68429 130.989 6.72366 130.541C6.76696 130.013 6.8142 129.482 6.86537 128.967C6.91655 128.451 6.97166 127.822 7.03071 127.251C7.08975 126.681 7.14486 126.102 7.21178 125.532C7.2787 124.961 7.33775 124.39 7.40861 123.824C7.47947 123.257 7.54245 122.683 7.61725 122.116C7.67629 121.644 7.73927 121.176 7.80226 120.703C7.8928 120.038 7.98728 119.37 8.08963 118.708C8.08963 118.61 8.11718 118.508 8.13293 118.413C8.85141 113.574 9.8304 108.777 11.0656 104.043L46.3997 104.027Z" fill="#B02828"/>
<path opacity="0.1" d="M6.44813 134.078H46.3998V188.51H9.37295C9.27454 189.068 9.18006 189.631 9.07771 190.194H46.3998V234.091C46.3328 234.072 46.2738 234.048 46.2108 234.025C45.1558 233.607 44.1087 233.167 43.0616 232.695L42.3924 232.392C41.3427 231.896 40.2929 231.371 39.2432 230.818C38.8771 230.625 38.511 230.424 38.1488 230.219C32.3212 226.956 27.027 222.822 22.45 217.958C22.3162 217.828 22.1902 217.691 22.0564 217.565C21.4187 216.872 20.7928 216.172 20.1865 215.456L19.5173 214.669C18.8009 213.791 18.1081 212.89 17.4349 211.977C17.3365 211.844 17.242 211.71 17.1397 211.584C14.402 207.789 12.1289 203.681 10.3689 199.346C10.3138 199.216 10.2665 199.075 10.2154 198.953C9.67475 197.562 9.19581 196.159 8.77854 194.742C8.59746 194.148 8.42425 193.562 8.27467 192.944C8.21956 192.763 8.17232 192.586 8.12901 192.409C5.89308 183.685 5.62933 174.623 5.62933 165.624C5.62933 164.574 5.62933 163.519 5.62933 162.476C5.62933 158.837 5.67263 155.173 5.73562 151.514C5.73562 150.565 5.77498 149.621 5.79466 148.669C5.84978 146.253 5.92851 143.837 6.03086 141.421C6.05447 140.748 6.08597 140.079 6.1214 139.41C6.1214 139.024 6.14108 138.639 6.18044 138.253C6.27492 136.852 6.35365 135.463 6.44813 134.078Z" fill="#B02828"/>
<path opacity="0.1" d="M85.9774 83.3495V132.394H55.9379V83.3495H60.2208V66.7443H77.8013V83.3495H85.9774Z" fill="#B02828"/>
<path opacity="0.1" d="M85.9774 134.074H55.9418V188.506H85.9774V134.074Z" fill="#B02828"/>
<path opacity="0.1" d="M55.9379 190.194H85.9774V235.445C82.434 236.463 78.8231 237.229 75.1717 237.739L74.2742 237.849C73.8333 237.9 73.3963 237.944 72.9633 237.987C72.5303 238.03 72.0815 238.062 71.6446 238.089H71.5068C71.3179 238.089 71.1132 238.113 70.9281 238.117H70.7274C70.4912 238.117 70.255 238.14 70.0188 238.148C69.6842 238.168 69.3496 238.172 69.0071 238.176C68.8615 238.176 68.7237 238.176 68.578 238.176C68.2395 238.176 67.9049 238.176 67.5664 238.176H66.8224C66.6216 238.176 66.4287 238.176 66.2201 238.176L65.4603 238.148C65.0667 238.148 64.6415 238.105 64.2321 238.077L63.4763 238.022L62.5355 237.936C61.8742 237.877 61.2168 237.802 60.5672 237.712L59.7799 237.601L59.3863 237.546C58.7289 237.444 58.0794 237.334 57.418 237.208C56.9338 237.125 56.4536 237.023 55.9655 236.925L55.9379 190.194Z" fill="#B02828"/>
<path opacity="0.1" d="M273.753 77.5573H248.984V132.39H273.753V77.5573Z" fill="#B02828"/>
<path opacity="0.1" d="M273.757 134.074V188.51H150.816V165.03H216.299V178.881H248.984V134.074H273.757Z" fill="#B02828"/>
<path opacity="0.1" d="M274.146 248.556H273.753V284.265C269.318 283.89 264.896 283.38 260.487 282.735C240.637 279.83 221.287 274.186 202.99 265.964C197.707 263.587 192.532 260.993 187.465 258.181C179 253.493 170.89 248.192 163.2 242.319C161.268 240.84 159.362 239.326 157.48 237.778C156.177 236.704 154.882 235.602 153.571 234.532C152.662 233.796 151.745 233.072 150.816 232.38V190.194H248.658C248.591 189.942 248.524 189.69 248.453 189.442C248.528 189.69 248.599 189.942 248.665 190.194H273.753V248.532C273.887 248.536 274.017 248.548 274.146 248.556Z" fill="#B02828"/>
<path opacity="0.1" d="M338.351 73.4729H322.211V68.4599H329.447V53.5269C330.074 53.7551 330.698 53.9899 331.32 54.2313V68.4599H338.351V73.4729Z" fill="#B02828"/>
<path opacity="0.1" d="M377.236 132.394H298.002C298.002 132.394 298.002 132.394 298.029 132.414L297.994 132.394H283.295V77.5612H287.46V118.091H306.493V94.0878H322.215V75.157H338.355V94.1035H354.077V118.106H377.236V132.394Z" fill="#B02828"/>
<path opacity="0.1" d="M283.295 134.074V188.51H377.236V134.074H283.295ZM402.736 252.585L402.866 209.498H377.236V190.217H283.295V284.852C290.997 285.175 298.71 285.083 306.402 284.576H306.536C310.21 284.345 313.867 284.009 317.507 283.569H317.59C337.009 281.31 355.997 276.245 373.961 268.534" fill="#B02828"/>
<path opacity="0.1" d="M414.07 190.194H435.984C435.791 201.247 433.571 212.103 428.714 222.129C424.671 230.459 419.053 237.743 412.416 244.106V209.479H414.07V190.194Z" fill="#B02828"/>
<path opacity="0.1" d="M435.996 188.51H414.07V143.018H425.934C432.075 157.361 435.976 173.101 435.996 188.51Z" fill="#B02828"/>
<path opacity="0.1" d="M273.757 92.8011H260.487V109.993H273.757V92.8011Z" fill="#B02828"/>
<path opacity="0.1" d="M273.757 128.436H260.487V132.394H273.757V128.436Z" fill="#B02828"/>
<path opacity="0.1" d="M273.757 134.074H260.487V145.623H273.757V134.074Z" fill="#B02828"/>
<path opacity="0.1" d="M273.757 164.07H260.487V181.261H273.757V164.07Z" fill="#B02828"/>
<path opacity="0.1" d="M273.757 199.704H260.487V216.896H273.757V199.704Z" fill="#B02828"/>
<path opacity="0.1" d="M273.753 248.532C273.887 248.532 274.017 248.532 274.146 248.556H273.753V252.55H260.487V235.339H273.753V248.532Z" fill="#B02828"/>
<path opacity="0.1" d="M273.753 270.965V284.246C269.318 283.87 264.896 283.36 260.487 282.715V270.965H273.753Z" fill="#B02828"/>
<path opacity="0.1" d="M207.686 187.246H150.816V188.51H207.686V187.246Z" fill="#B02828"/>
<path opacity="0.1" d="M207.686 190.19H150.816V195.03H207.686V190.19Z" fill="#B02828"/>
<path opacity="0.1" d="M207.686 210.895H150.816V218.678H207.686V210.895Z" fill="#B02828"/>
<path opacity="0.1" d="M207.682 234.544V242.327H163.2C161.268 240.853 159.36 239.339 157.476 237.786C156.173 236.712 154.882 235.61 153.567 234.544H207.682Z" fill="#B02828"/>
<path opacity="0.1" d="M207.682 258.189V265.964H202.986C197.709 263.585 192.535 260.989 187.465 258.177L207.682 258.189Z" fill="#B02828"/>
<path opacity="0.1" d="M317.602 139.351H306.406V150.542H317.602V139.351Z" fill="#B02828"/>
<path opacity="0.1" d="M75.1993 87.2097H64.0038V98.4005H75.1993V87.2097Z" fill="#B02828"/>
<path opacity="0.1" d="M75.1993 113.204H64.0038V124.394H75.1993V113.204Z" fill="#B02828"/>
<path opacity="0.1" d="M75.1993 139.197H64.0038V150.388H75.1993V139.197Z" fill="#B02828"/>
<path opacity="0.1" d="M75.1993 165.188H64.0038V176.378H75.1993V165.188Z" fill="#B02828"/>
<path opacity="0.1" d="M75.1993 191.181H64.0038V202.372H75.1993V191.181Z" fill="#B02828"/>
<path opacity="0.1" d="M75.1993 217.175H64.0038V228.366H75.1993V217.175Z" fill="#B02828"/>
<path opacity="0.1" d="M360.34 139.351H349.145V150.542H360.34V139.351Z" fill="#B02828"/>
<path opacity="0.1" d="M317.602 166.954H306.406V178.145H317.602V166.954Z" fill="#B02828"/>
<path opacity="0.1" d="M360.34 166.954H349.145V178.145H360.34V166.954Z" fill="#B02828"/>
<path opacity="0.1" d="M317.602 194.554H306.406V205.744H317.602V194.554Z" fill="#B02828"/>
<path opacity="0.1" d="M360.34 194.554H349.145V205.744H360.34V194.554Z" fill="#B02828"/>
<path opacity="0.1" d="M317.602 222.157H306.406V233.348H317.602V222.157Z" fill="#B02828"/>
<path opacity="0.1" d="M360.34 222.157H349.145V233.348H360.34V222.157Z" fill="#B02828"/>
<path opacity="0.1" d="M317.602 249.76H306.406V260.951H317.602V249.76Z" fill="#B02828"/>
<path opacity="0.1" d="M360.34 249.76H349.145V260.951H360.34V249.76Z" fill="#B02828"/>
<path opacity="0.1" d="M306.406 284.576V277.359H317.598V283.549L306.406 284.576Z" fill="#B02828"/>
<path opacity="0.1" d="M8.08572 118.406V124.808H46.3998V118.406H8.08572ZM11.9041 124.406H8.77855V118.799H11.9278L11.9041 124.406ZM15.7186 124.406H12.5694V118.799H15.7186V124.406ZM19.5252 124.406H16.376V118.799H19.5252V124.406ZM23.3397 124.406H20.1944V118.799H23.3436L23.3397 124.406ZM27.1502 124.406H24.001V118.799H27.1502V124.406ZM30.9647 124.406H27.8155V118.799H30.9647V124.406ZM34.7792 124.406H31.63V118.799H34.7792V124.406ZM38.5897 124.406H35.4405V118.799H38.5897V124.406ZM42.4003 124.406H39.2511V118.799H42.4003V124.406ZM46.2108 124.406H43.0616V118.799H46.2108V124.406Z" fill="#B02828"/>
<path opacity="0.1" d="M8.08572 137.033V143.435H46.3998V137.033H8.08572ZM11.9041 143.03H8.77855V137.439H11.9278L11.9041 143.03ZM15.7186 143.03H12.5694V137.439H15.7186V143.03ZM19.5252 143.03H16.376V137.439H19.5252V143.03ZM23.3397 143.03H20.1944V137.439H23.3436L23.3397 143.03ZM27.1502 143.03H24.001V137.439H27.1502V143.03ZM30.9647 143.03H27.8155V137.439H30.9647V143.03ZM34.7792 143.03H31.63V137.439H34.7792V143.03ZM38.5897 143.03H35.4405V137.439H38.5897V143.03ZM42.4003 143.03H39.2511V137.439H42.4003V143.03ZM46.2108 143.03H43.0616V137.439H46.2108V143.03Z" fill="#B02828"/>
<path opacity="0.1" d="M8.08572 155.669V162.083H46.3998V155.669H8.08572ZM11.9041 161.666H8.77855V156.07H11.9278L11.9041 161.666ZM15.7186 161.666H12.5694V156.07H15.7186V161.666ZM19.5252 161.666H16.376V156.07H19.5252V161.666ZM23.3397 161.666H20.1944V156.07H23.3436L23.3397 161.666ZM27.1502 161.666H24.001V156.07H27.1502V161.666ZM30.9647 161.666H27.8155V156.07H30.9647V161.666ZM34.7792 161.666H31.63V156.07H34.7792V161.666ZM38.5897 161.666H35.4405V156.07H38.5897V161.666ZM42.4003 161.666H39.2511V156.07H42.4003V161.666ZM46.2108 161.666H43.0616V156.07H46.2108V161.666Z" fill="#B02828"/>
<path opacity="0.1" d="M8.08572 174.305V180.699H46.3998V174.305H8.08572ZM11.9041 180.301H8.77855V174.702H11.9278L11.9041 180.301ZM15.7186 180.301H12.5694V174.702H15.7186V180.301ZM19.5252 180.301H16.376V174.702H19.5252V180.301ZM23.3397 180.301H20.1944V174.702H23.3436L23.3397 180.301ZM27.1502 180.301H24.001V174.702H27.1502V180.301ZM30.9647 180.301H27.8155V174.702H30.9647V180.301ZM34.7792 180.301H31.63V174.702H34.7792V180.301ZM38.5897 180.301H35.4405V174.702H38.5897V180.301ZM42.4003 180.301H39.2511V174.702H42.4003V180.301ZM46.2108 180.301H43.0616V174.702H46.2108V180.301Z" fill="#B02828"/>
<path opacity="0.1" d="M8.25103 192.936C8.40455 193.538 8.57775 194.14 8.75883 194.735V193.338H11.908V198.933H10.2232C10.2744 199.063 10.3256 199.205 10.3767 199.327H46.3997V192.936H8.25103ZM15.7304 198.933H12.5812V193.338H15.7304V198.933ZM19.537 198.933H16.3878V193.338H19.537V198.933ZM23.3515 198.933H20.1944V193.338H23.3436L23.3515 198.933ZM27.162 198.933H24.0128V193.338H27.162V198.933ZM30.9765 198.933H27.8273V193.338H30.9765V198.933ZM34.791 198.933H31.6418V193.338H34.791V198.933ZM38.6015 198.933H35.4523V193.338H38.6015V198.933ZM42.4121 198.933H39.2628V193.338H42.4121V198.933ZM46.2226 198.933H43.0734V193.338H46.2226V198.933Z" fill="#B02828"/>
<path opacity="0.1" d="M17.1476 211.572C17.246 211.698 17.3405 211.84 17.4428 211.966H19.5252V214.653C19.7496 214.921 19.97 215.188 20.1984 215.44V211.95H23.3476V217.565H22.0721C22.1981 217.695 22.3201 217.832 22.4658 217.958H46.4116V211.572H17.1476ZM27.1502 217.565H24.001V211.973H27.1502V217.565ZM30.9647 217.565H27.8155V211.973H30.9647V217.565ZM34.7792 217.565H31.63V211.973H34.7792V217.565ZM38.5897 217.565H35.4405V211.973H38.5897V217.565ZM42.4003 217.565H39.2511V211.973H42.4003V217.565ZM46.2108 217.565H43.0616V211.973H46.2108V217.565Z" fill="#B02828"/>
<path opacity="0.1" d="M38.1646 230.204C38.5228 230.408 38.8889 230.597 39.2589 230.802V230.605H42.4081V232.376L43.0773 232.687V230.605H46.2265V234.009C46.2869 234.039 46.3502 234.062 46.4155 234.08V230.204H38.1646Z" fill="#B02828"/>
<path opacity="0.1" d="M298.002 132.394H298.025H298.002ZM273.753 248.529H274.146H273.753ZM248.453 189.438C248.528 189.69 248.591 189.942 248.661 190.19C248.599 189.942 248.532 189.69 248.453 189.438ZM298.002 132.382H298.025H298.002ZM60.2366 73.4611V75.1413H77.821V73.4611H60.2366ZM273.753 248.529H274.146H273.753ZM248.453 189.438C248.528 189.69 248.591 189.942 248.661 190.19C248.599 189.942 248.532 189.69 248.453 189.438ZM298.002 132.382H298.025H298.002ZM273.753 248.517H274.146H273.753ZM248.453 189.438C248.528 189.69 248.591 189.942 248.661 190.19C248.599 189.942 248.532 189.69 248.453 189.438Z" fill="#B02828"/>
<path d="M182.709 150.396C182.709 150.396 181.158 150.18 181.158 147.921C181.158 145.663 180.048 141.444 180.048 141.444C180.048 141.425 179.088 134.098 177.761 132.933C176.434 131.768 174.73 124.93 174.73 124.93C174.73 124.93 174.439 121.219 173.844 120.42C173.25 119.621 172.447 117.666 171.262 114.876C170.077 112.086 165.137 110.154 165.137 110.154C165.137 110.154 156.205 104.976 153.674 103.288C153.443 103.149 153.228 102.987 153.032 102.804C152.591 102.225 150.67 102.213 150.67 102.213C150.469 100.946 150.276 99.4904 150.213 98.1722C150.213 98.0306 150.213 97.8889 150.194 97.7473C153.016 96.0796 155.142 93.4502 156.181 90.3418C156.228 90.1923 156.268 90.0349 156.311 89.8853C156.48 89.8297 156.636 89.7393 156.768 89.6201C156.9 89.5008 157.006 89.3553 157.079 89.1928C157.307 88.6852 157.311 88.091 157.594 87.6189C157.925 87.0601 158.555 86.761 159.051 86.34C160.303 85.2776 160.625 83.4872 160.566 81.8582C160.527 80.54 160.314 79.21 160.397 77.8997L160.421 77.5691C160.444 77.3724 160.472 77.1756 160.507 76.9868C160.7 76.0109 161.121 75.0901 161.358 74.1222C161.594 73.1542 161.617 72.0642 161.066 71.23C160.259 70.0063 158.578 69.7623 157.102 69.6364C155.429 69.4947 153.933 69.6797 152.863 68.2906C152.362 67.5647 151.798 66.884 151.178 66.2563C150.957 66.0517 148.816 64.7453 148.816 64.6587C146.726 63.6911 144.357 63.5095 142.144 64.1472C141.033 64.4699 139.986 64.9971 138.86 65.2608C136.432 65.8353 133.637 65.2136 131.574 66.6026C130.425 67.3896 129.736 68.6409 129.09 69.8607C128.565 70.8654 128.032 71.8688 127.492 72.8709C126.622 74.5196 125.736 76.1958 125.37 78.0216C125.293 78.4189 125.246 78.8214 125.228 79.2257V79.2454C125.228 79.391 125.228 79.5366 125.228 79.6822V79.8671C125.228 80.0048 125.228 80.1386 125.252 80.2606C125.276 80.3826 125.272 80.4219 125.283 80.5046C125.295 80.5872 125.315 80.7721 125.339 80.898C125.362 81.024 125.409 81.2443 125.457 81.4175C125.476 81.4922 125.504 81.563 125.528 81.6339C125.567 81.7677 125.614 81.8975 125.665 82.0274C125.693 82.0943 125.72 82.1651 125.752 82.232C125.811 82.3697 125.882 82.5035 125.953 82.6255C125.984 82.6806 126.008 82.7317 126.039 82.7829C126.149 82.9659 126.27 83.1419 126.401 83.3101C127.244 84.3608 128.484 85.0297 129.401 86.0134C129.401 86.0528 129.401 86.0921 129.401 86.1275C129.401 86.2377 129.401 86.3439 129.401 86.4541C129.45 88.648 130.034 90.7968 131.103 92.7136C132.172 94.6304 133.693 96.2571 135.534 97.4522C135.534 97.6017 135.554 97.7551 135.562 97.9047C135.638 99.0727 135.624 100.245 135.518 101.411C135.358 101.222 135.157 101.072 134.931 100.971C134.705 100.87 134.459 100.821 134.211 100.828C134.042 100.82 133.873 100.835 133.708 100.872L133.672 100.844V100.879C132.806 101.092 131.739 101.993 130.72 104.555C130.72 104.555 127.618 108.049 125.256 107.903C122.894 107.758 116.914 111.539 116.914 111.539C116.914 111.539 111.081 115.324 109.829 119.181C109.129 121.367 108.29 123.507 107.317 125.587L100.106 140.441L98.775 152.226C98.775 152.226 99.5111 157.467 99.3655 158.266C99.2198 159.065 102.393 166.27 102.393 166.27C102.393 166.27 112.876 184.681 117.158 185.625L117.466 185.409C117.649 185.505 117.843 185.577 118.044 185.625L118.926 185.004C118.979 185.697 118.957 186.393 118.859 187.081C118.269 188.899 119.08 200.763 120.111 203.088C121.142 205.414 120.776 235.905 120.776 235.905L120.631 238.597C120.631 238.597 120.631 238.683 120.666 238.833L120.631 239.47L120.737 239.525C120.847 240.379 120.811 241.245 120.631 242.087C120.26 243.268 120.111 246.604 120.111 246.604C120.111 246.604 117.162 265.445 118.56 269.23C119.957 273.015 121.146 277.163 121.146 277.163C121.146 277.163 122.622 281.885 121.217 282.691C119.812 283.498 115.816 284.852 116.639 286.819C117.387 288.637 120.225 293.508 120.646 294.221L120.611 294.594L120.032 300.863C120.126 301.69 120.35 302.498 120.697 303.255C121.331 304.62 122.563 306.037 124.906 305.884C125.299 305.856 125.756 305.809 126.197 305.75C130.484 305.175 135.762 303.263 135.762 303.263C135.488 303.089 135.237 302.881 135.014 302.645C134.804 302.441 134.637 302.196 134.524 301.926C134.411 301.655 134.354 301.364 134.357 301.071C134.42 299.93 132.283 294.492 131.751 293.154C131.668 292.961 131.625 292.851 131.625 292.851C131.625 292.851 136.499 287.759 135.688 283.246C135.688 283.246 130.295 280.098 132.07 278.371C133.845 276.643 137.018 271.681 137.018 271.681C137.018 271.681 137.164 253.128 137.018 250.358C136.866 248.436 136.958 246.501 137.29 244.602C137.349 244.314 137.42 244.035 137.495 243.759C139.95 244.126 142.428 244.314 144.911 244.322C145.816 244.322 146.737 244.322 147.666 244.267C147.666 244.529 147.678 244.813 147.702 245.117C147.907 249.713 148.288 257.772 148.599 260.766C149.04 265.059 151.477 276.628 151.477 276.628C151.477 276.628 146.828 279.61 152.288 286.961C152.288 286.961 152.288 289.625 151.926 290.01C151.539 291.271 151.228 292.553 150.993 293.851C150.764 295.236 150.67 296.637 151.04 297.365C151.926 299.104 157.24 298.962 157.24 298.962L157.37 298.938C158.373 298.835 159.387 298.931 160.353 299.222C161.318 299.514 162.217 299.994 162.995 300.634C165.015 302.256 172.679 301.543 176.828 301.028C178.454 300.823 179.54 300.634 179.54 300.634C179.593 300.45 179.612 300.258 179.595 300.068C179.552 299.049 178.753 296.814 173.336 294.819C173.336 294.819 168.243 291.395 168.313 288.413H168.207H167.617C168.046 288.389 168.321 288.413 168.321 288.413C168.321 288.413 166.326 281.133 167.14 280.543C167.955 279.953 165.515 271.886 165.515 271.886C165.515 271.886 164.117 258.35 164.042 257.402C164.045 256.588 164.169 255.779 164.408 255.001L164.042 247.58C164.042 247.58 163.971 245.113 164.042 244.31C164.03 243.614 163.974 242.918 163.873 242.229C163.838 241.953 163.802 241.666 163.763 241.383C165.672 240.899 166.912 240.45 166.912 240.45L166.692 214.618C168.313 211.47 168.613 204.564 168.605 199.665C168.605 196.517 168.463 194.188 168.463 194.188L170.679 190.571C170.679 190.571 171.191 186.243 170.38 185.295C170.022 184.866 170.183 184.421 170.479 184.055C170.632 183.934 170.794 183.823 170.963 183.725C170.963 183.725 170.939 183.689 170.912 183.638C171.066 183.509 171.231 183.392 171.404 183.288C171.404 183.288 170.616 182.068 171.321 181.553C171.982 182.001 172.573 182.34 173.022 182.615C172.99 182.902 172.959 183.068 172.959 183.068L173.147 182.674C173.58 182.918 173.844 183.068 173.844 183.068C173.844 183.068 177.316 176.154 177.241 175.135C177.167 174.116 179.603 169.823 179.603 169.823C179.603 169.823 179.899 167.568 181.229 166.624C182.56 165.679 182.26 158.837 182.26 158.837C182.26 158.837 182.631 155.272 183.516 153.816C184.402 152.36 182.709 150.396 182.709 150.396ZM116.277 147.362L116.344 149.011C115.95 148.378 115.667 147.921 115.667 147.921L116.277 147.362Z" fill="url(#paint0_linear)"/>
<path d="M174.033 180.081L173.183 183.701C173.183 183.701 166.373 180.227 165.145 175.812C163.916 171.397 167.199 169.72 167.199 169.72L173.545 172.408L174.033 180.081Z" fill="white"/>
<path opacity="0.1" d="M174.033 180.081L173.183 183.701C173.183 183.701 166.373 180.227 165.145 175.812C163.916 171.397 167.199 169.72 167.199 169.72L173.545 172.408L174.033 180.081Z" fill="black"/>
<path d="M135.814 303.287C135.814 303.287 129.515 305.6 125.185 305.891C122.886 306.045 121.678 304.636 121.056 303.279C120.716 302.524 120.497 301.721 120.406 300.898L120.969 294.661L121.268 291.34L130.468 288.952L131.771 292.934L131.893 293.237C132.416 294.567 134.515 299.977 134.452 301.107C134.449 301.396 134.505 301.682 134.616 301.95C134.727 302.217 134.89 302.459 135.097 302.661C135.308 302.899 135.549 303.109 135.814 303.287Z" fill="white"/>
<path d="M178.836 300.115C178.851 300.304 178.833 300.495 178.781 300.678C178.781 300.678 165.31 302.925 162.554 300.678C161.777 300.021 160.872 299.535 159.896 299.249C158.919 298.963 157.894 298.884 156.886 299.017C156.886 299.017 151.674 299.159 150.804 297.443C150.442 296.723 150.536 295.326 150.761 293.949C150.989 292.659 151.294 291.383 151.674 290.128L151.882 289.963L153.122 288.967L167.64 288.539H167.75C167.68 291.505 172.679 294.909 172.679 294.909C177.989 296.877 178.773 299.1 178.836 300.115Z" fill="white"/>
<path opacity="0.1" d="M178.836 300.115C178.85 300.305 178.83 300.495 178.777 300.678C178.777 300.678 165.31 302.925 162.554 300.678C161.778 300.022 160.873 299.535 159.897 299.249C158.922 298.964 157.898 298.884 156.89 299.017C156.89 299.017 151.674 299.159 150.808 297.443C150.446 296.719 150.536 295.326 150.761 293.949C152.768 294.15 155.937 294.65 157.181 295.842C159.063 297.656 162.251 299.466 164.208 299.607C165.739 299.706 174.899 299.997 178.836 300.115Z" fill="black"/>
<path opacity="0.1" d="M135.814 303.287C135.814 303.287 129.515 305.6 125.185 305.891C122.886 306.045 121.678 304.636 121.06 303.275C122.662 303.814 124.886 304.38 126.055 303.861C127.441 303.247 132.353 302.85 135.109 302.681C135.319 302.91 135.555 303.113 135.814 303.287Z" fill="black"/>
<path d="M145.159 116.831C139.963 114.813 133.278 108.143 134.948 105.027C135.318 104.24 135.539 103.392 135.597 102.524C135.704 101.347 135.72 100.163 135.644 98.9828C135.527 97.0504 135.295 95.1267 134.948 93.2221C134.948 93.2221 151.17 93.5881 150.225 95.9765C149.95 96.6769 149.906 97.8928 149.981 99.2543C150.056 100.616 150.253 102.154 150.457 103.457C150.741 105.243 151.024 106.605 151.024 106.605C151.024 106.605 150.032 107.994 149.45 108.068C148.867 108.143 152.615 119.708 145.159 116.831Z" fill="#CF6F80"/>
<path opacity="0.1" d="M131.881 293.237L131.759 293.371C126.909 287.508 121.044 294.815 121.044 294.815L120.957 294.661L121.256 291.34L130.456 288.952L131.759 292.934L131.881 293.237Z" fill="black"/>
<path opacity="0.1" d="M167.755 288.952C167.755 288.952 164.212 288.877 162.322 290.545C160.433 292.214 151.3 290.907 151.694 290.545C151.81 290.366 151.88 290.16 151.898 289.947L153.138 288.952L167.656 288.523C167.711 288.786 167.755 288.952 167.755 288.952Z" fill="black"/>
<path d="M137.916 242.909C137.652 243.562 137.452 244.238 137.317 244.928C136.989 246.819 136.898 248.744 137.046 250.657C137.191 253.412 137.046 271.87 137.046 271.87C137.046 271.87 133.932 276.793 132.196 278.528C130.46 280.263 135.739 283.38 135.739 283.38C136.526 287.866 131.755 292.934 131.755 292.934C126.905 287.071 121.04 294.382 121.04 294.382C121.04 294.382 117.851 288.873 117.056 286.906C116.261 284.938 120.17 283.577 121.544 282.778C122.918 281.979 121.477 277.269 121.477 277.269C121.477 277.269 120.316 273.141 118.938 269.376C117.56 265.61 120.457 246.864 120.457 246.864C120.457 246.864 120.607 243.535 120.965 242.374C121.146 241.537 121.182 240.674 121.071 239.825C121.048 239.537 121.02 239.297 121.001 239.136C120.981 238.975 120.965 238.9 120.965 238.9L121.02 238.805L122.989 235.138C122.989 235.138 138.861 240.6 137.916 242.909Z" fill="#B02828"/>
<path d="M167.754 288.519C167.754 288.519 164.212 288.444 162.322 290.093C160.433 291.742 151.3 290.455 151.694 290.093C152.087 289.731 152.056 287.051 152.056 287.051C146.698 279.74 151.268 276.773 151.268 276.773C151.268 276.773 148.875 265.264 148.442 260.994C148.139 258.012 147.765 249.996 147.564 245.42C147.478 243.452 147.426 242.099 147.426 242.099L151.804 241.217L152.367 241.103L162.924 238.986C162.924 238.986 163.216 240.954 163.412 242.563C163.511 243.25 163.566 243.943 163.578 244.637C163.507 245.424 163.578 247.887 163.578 247.887L163.936 255.273C163.702 256.048 163.581 256.852 163.578 257.661C163.649 258.602 165.023 272.067 165.023 272.067C165.023 272.067 167.412 280.102 166.597 280.681C165.782 281.259 167.754 288.519 167.754 288.519Z" fill="#B02828"/>
<path opacity="0.1" d="M150.225 95.9765C149.95 96.6769 149.906 97.8928 149.981 99.2543C147.808 100.562 145.31 101.231 142.774 101.184C140.238 101.136 137.767 100.375 135.644 98.9867C135.527 97.053 135.295 95.128 134.948 93.2221C134.948 93.2221 151.17 93.5802 150.225 95.9765Z" fill="black"/>
<path d="M156.496 87.2805C156.499 88.6984 156.276 90.1078 155.835 91.4554C154.848 94.4749 152.826 97.0487 150.125 98.7218C147.424 100.395 144.218 101.06 141.074 100.599C137.93 100.138 135.05 98.5807 132.944 96.2026C130.837 93.8245 129.64 90.7786 129.562 87.6031C129.562 87.493 129.562 87.3906 129.562 87.2805C129.532 85.4931 129.858 83.7175 130.521 82.0573C131.184 80.3971 132.171 78.8855 133.425 77.6107C134.679 76.3359 136.174 75.3233 137.823 74.6322C139.472 73.941 141.243 73.5851 143.031 73.5851C144.82 73.5851 146.59 73.941 148.239 74.6322C149.889 75.3233 151.384 76.3359 152.638 77.6107C153.891 78.8855 154.878 80.3971 155.542 82.0573C156.205 83.7175 156.531 85.4931 156.5 87.2805H156.496Z" fill="#CF6F80"/>
<path opacity="0.1" d="M145.159 116.832C139.963 114.813 133.278 108.143 134.948 105.027C135.318 104.24 135.539 103.392 135.597 102.524L142.71 108.368L147.111 111.976L150.457 103.461C150.741 105.247 151.024 106.609 151.024 106.609C151.024 106.609 150.032 107.998 149.45 108.072C148.867 108.147 152.615 119.708 145.159 116.832Z" fill="black"/>
<path d="M163.554 142.656L157.614 242.406L149.867 242.913L129.807 185.074L133.097 116.407L133.79 101.899L142.71 109.221L147.115 112.83L150.56 104.067L156.965 109.646L163.554 142.656Z" fill="#B02828"/>
<path opacity="0.1" d="M137.916 242.909C137.652 243.562 137.452 244.238 137.317 244.928C131.68 244.058 126.205 242.348 121.075 239.856L120.969 239.801L121.005 239.167L121.024 238.837L122.992 235.17C122.992 235.17 138.861 240.6 137.916 242.909Z" fill="black"/>
<path opacity="0.1" d="M151.894 244.944C150.453 245.189 149 245.354 147.541 245.44C147.454 243.472 147.403 242.119 147.403 242.119L151.78 241.237L151.894 244.944Z" fill="black"/>
<path opacity="0.1" d="M163.389 242.583C160.59 243.311 156.268 244.129 152.398 243.618L152.343 241.123L162.901 239.006C162.901 239.006 163.192 240.954 163.389 242.583Z" fill="black"/>
<path opacity="0.1" d="M152.327 244.074C136.188 246.829 121.406 238.931 121.406 238.931L121.548 236.256C121.548 236.256 121.914 205.921 120.898 203.596C119.883 201.27 119.091 189.478 119.666 187.667C120.241 185.857 117.568 158.715 117.568 158.715L117.135 147.697L101.286 141.279L108.372 126.515C109.329 124.445 110.152 122.316 110.836 120.141C112.069 116.308 117.788 112.542 117.788 112.542C117.788 112.542 123.654 108.781 125.972 108.922C128.291 109.064 131.33 105.593 131.33 105.593C133.574 99.876 135.605 102.465 135.605 102.465C135.605 102.737 135.605 102.465 135.495 103.311C134.707 109.587 148.225 129.419 148.418 129.769L149.706 161.115L151.009 200.782L152.327 244.074Z" fill="black"/>
<path d="M151.894 244.074C135.755 246.829 120.969 238.931 120.969 238.931L121.115 236.256C121.115 236.256 121.481 205.921 120.461 203.596C119.442 201.27 118.654 189.478 119.233 187.667C119.812 185.857 117.135 158.715 117.135 158.715L116.698 147.697L100.842 141.255L107.927 126.492C108.882 124.421 109.705 122.292 110.392 120.117C111.62 116.285 117.344 112.519 117.344 112.519C117.344 112.519 123.209 108.757 125.524 108.899C127.838 109.04 130.881 105.57 130.881 105.57C133.129 99.8524 135.605 102.442 135.605 102.442C135.605 102.713 135.369 102.835 135.495 103.288C137.227 109.375 147.792 129.396 147.985 129.746L149.288 161.091L150.591 200.759L151.894 244.074Z" fill="white"/>
<path opacity="0.1" d="M147.544 130.639C145.808 129.915 136.613 119.421 136.613 119.421V117.032C136.278 116.245 134.29 116.725 132.676 117.276L133.369 102.768L134.156 103.421C135.881 109.505 147.344 130.289 147.544 130.639Z" fill="black"/>
<path d="M147.981 129.769C146.241 129.045 137.046 118.551 137.046 118.551V116.163C136.711 115.376 134.723 115.856 133.109 116.407L133.806 101.899L134.593 102.552C136.321 108.635 147.788 129.423 147.981 129.769Z" fill="white"/>
<path opacity="0.1" d="M121.406 182.107C121.623 182.107 132.629 180.951 132.629 180.951C132.629 180.951 139.294 194.05 138.857 197.237C138.42 200.424 137.628 203.246 134.948 202.746C132.267 202.246 120.52 203.139 120.52 203.139L121.406 182.107Z" fill="black"/>
<path d="M120.969 181.238C121.186 181.238 132.192 180.081 132.192 180.081C132.192 180.081 138.853 193.184 138.42 196.368C137.987 199.551 137.187 202.376 134.511 201.876C131.834 201.377 120.083 202.27 120.083 202.27L120.969 181.238Z" fill="white"/>
<path d="M129.263 175.088C129.263 175.088 139.364 180.514 139.581 182.17C139.797 183.827 134.44 181.446 133.282 181.159C132.521 180.976 131.745 180.855 130.964 180.797L123.244 181.006L129.263 175.088Z" fill="#CF6F80"/>
<path opacity="0.1" d="M144.726 131.316C145.313 131.316 145.789 130.84 145.789 130.253C145.789 129.667 145.313 129.191 144.726 129.191C144.139 129.191 143.663 129.667 143.663 130.253C143.663 130.84 144.139 131.316 144.726 131.316Z" fill="black"/>
<path d="M144.726 130.883C145.313 130.883 145.789 130.407 145.789 129.821C145.789 129.234 145.313 128.758 144.726 128.758C144.139 128.758 143.663 129.234 143.663 129.821C143.663 130.407 144.139 130.883 144.726 130.883Z" fill="#3F3D56"/>
<path opacity="0.1" d="M146.682 177.307C147.269 177.307 147.745 176.831 147.745 176.244C147.745 175.658 147.269 175.182 146.682 175.182C146.095 175.182 145.619 175.658 145.619 176.244C145.619 176.831 146.095 177.307 146.682 177.307Z" fill="black"/>
<path d="M146.682 176.87C147.269 176.87 147.745 176.394 147.745 175.808C147.745 175.221 147.269 174.745 146.682 174.745C146.095 174.745 145.619 175.221 145.619 175.808C145.619 176.394 146.095 176.87 146.682 176.87Z" fill="#3F3D56"/>
<path opacity="0.1" d="M145.785 154.311C146.372 154.311 146.848 153.836 146.848 153.249C146.848 152.662 146.372 152.187 145.785 152.187C145.198 152.187 144.722 152.662 144.722 153.249C144.722 153.836 145.198 154.311 145.785 154.311Z" fill="black"/>
<path d="M145.785 153.879C146.372 153.879 146.848 153.403 146.848 152.816C146.848 152.229 146.372 151.754 145.785 151.754C145.198 151.754 144.722 152.229 144.722 152.816C144.722 153.403 145.198 153.879 145.785 153.879Z" fill="#3F3D56"/>
<path d="M170.286 180.577C170.286 180.577 171.01 181.663 170.286 182.17C169.561 182.678 170.356 183.906 170.356 183.906C170.356 183.906 168.55 184.964 169.345 185.916C170.14 186.869 169.636 191.17 169.636 191.17L167.463 194.766C167.463 194.766 167.593 197.084 167.601 200.216C167.601 205.103 167.314 211.973 165.723 215.106L165.944 240.804C165.944 240.804 158.334 243.582 151.965 242.736L151.02 201.499C151.02 201.499 152.398 178.114 152.906 173.628C153.203 171.299 153.324 168.951 153.268 166.604C153.268 166.604 153.052 159.584 152.323 156.326C152.323 156.326 151.536 142.212 151.457 138.304C151.422 136.435 151.52 130.981 151.631 125.795C151.753 120.125 151.89 114.778 151.89 114.778L150.453 103.414C150.453 103.414 151.89 103.268 152.323 103.846C152.517 104.027 152.728 104.19 152.953 104.33C155.433 106.007 164.196 111.161 164.196 111.161C164.196 111.161 169.046 113.089 170.207 115.852C171.368 118.614 172.175 120.574 172.738 121.361C173.301 122.148 173.608 125.846 173.608 125.846C173.608 125.846 175.277 132.654 176.58 133.807C177.883 134.96 178.836 142.294 178.836 142.294L167.321 151.344C167.321 151.344 166.31 166.399 166.093 166.982C165.877 167.564 170.286 180.577 170.286 180.577Z" fill="white"/>
<path d="M170.723 180.577C170.723 180.577 171.443 181.663 170.723 182.17C170.002 182.678 170.789 183.906 170.789 183.906C170.789 183.906 168.994 184.976 169.782 185.928C170.569 186.88 170.073 191.181 170.073 191.181L167.9 194.778C167.9 194.778 168.03 197.095 168.042 200.228C168.042 205.115 167.754 211.985 166.164 215.117L166.381 240.816C166.381 240.816 158.76 243.594 152.398 242.748L151.457 201.51C151.457 201.51 152.835 178.125 153.343 173.64C153.64 171.311 153.76 168.963 153.701 166.616C153.701 166.616 153.485 159.596 152.76 156.338C152.76 156.338 151.973 142.223 151.89 138.316C151.855 136.447 151.957 130.993 152.064 125.807C152.186 120.137 152.323 114.789 152.323 114.789L150.426 103.272C150.426 103.272 152.323 103.272 152.76 103.858C152.952 104.041 153.164 104.204 153.39 104.342C155.87 106.018 164.637 111.173 164.637 111.173C164.637 111.173 169.483 113.101 170.644 115.864C171.805 118.626 172.612 120.585 173.179 121.372C173.746 122.159 174.045 125.858 174.045 125.858C174.045 125.858 175.714 132.666 177.017 133.818C178.32 134.971 179.261 142.29 179.261 142.29L167.747 151.341C167.747 151.341 166.735 166.395 166.514 166.978C166.294 167.56 170.723 180.577 170.723 180.577Z" fill="white"/>
<path opacity="0.1" d="M156.933 118.13L157.972 121.16L152.501 126.669C152.623 121.002 152.76 115.651 152.76 115.651L150.863 104.134C150.863 104.134 152.76 104.134 153.197 104.72C153.389 104.903 153.6 105.064 153.827 105.2L158.48 118.618L156.933 118.13Z" fill="black"/>
<path d="M156.496 117.26L157.539 120.29L152.067 125.799C152.189 120.129 152.327 114.781 152.327 114.781L150.426 103.264C150.426 103.264 152.327 103.264 152.76 103.85C152.953 104.032 153.164 104.195 153.39 104.334L158.047 117.748L156.496 117.26Z" fill="white"/>
<path opacity="0.1" d="M156.496 87.2805C156.499 88.6984 156.276 90.1078 155.835 91.4554C155.76 91.467 155.684 91.4636 155.611 91.4453C155.538 91.4271 155.47 91.3944 155.41 91.3492C155.307 87.8077 153.563 84.4828 151.418 81.6536C150.816 80.7994 150.085 80.0429 149.253 79.4107C148.411 78.7788 147.364 78.4828 146.316 78.5804C145.135 78.7417 144.092 79.5445 142.899 79.6468C141.325 79.7766 139.915 78.6867 138.353 78.6316C137.717 78.6376 137.091 78.779 136.514 79.0464C135.938 79.3137 135.425 79.7008 135.011 80.1819C134.19 81.1528 133.58 82.2838 133.219 83.503C132.601 85.3517 132.263 87.2831 132.22 89.2322C132.2 90.3339 132.094 91.7151 131.07 92.1165C131.147 91.3062 131.055 90.4887 130.8 89.7159C130.544 88.943 130.131 88.2316 129.586 87.6267L129.562 87.6031C129.562 87.493 129.562 87.3906 129.562 87.2805C129.532 85.4931 129.858 83.7175 130.521 82.0573C131.184 80.3971 132.171 78.8855 133.425 77.6107C134.679 76.3359 136.174 75.3233 137.823 74.6322C139.472 73.941 141.243 73.5851 143.031 73.5851C144.82 73.5851 146.59 73.941 148.239 74.6322C149.889 75.3233 151.384 76.3359 152.638 77.6107C153.891 78.8855 154.878 80.3971 155.542 82.0573C156.205 83.7175 156.531 85.4931 156.5 87.2805H156.496Z" fill="black"/>
<path d="M148.607 65.9022C146.562 64.9403 144.235 64.7584 142.065 65.3906C140.974 65.7133 139.947 66.2366 138.841 66.5003C136.479 67.0708 133.723 66.453 131.696 67.8342C130.57 68.6212 129.893 69.8646 129.263 71.0726L127.689 74.071C126.83 75.7118 125.964 77.3802 125.606 79.1863C125.248 80.9925 125.465 83.015 126.61 84.467C127.445 85.5255 128.677 86.1905 129.582 87.186C130.125 87.7915 130.536 88.5025 130.791 89.2744C131.045 90.0463 131.138 90.8625 131.062 91.6718C132.09 91.2783 132.188 89.8932 132.212 88.7914C132.256 86.8424 132.593 84.911 133.212 83.0622C133.571 81.8427 134.181 80.7115 135.003 79.7412C135.418 79.2605 135.93 78.8736 136.507 78.6063C137.083 78.339 137.71 78.1974 138.345 78.1908C139.919 78.2459 141.333 79.3319 142.891 79.2021C144.072 79.1037 145.12 78.2971 146.308 78.1397C147.357 78.0405 148.404 78.3367 149.245 78.9699C150.077 79.6012 150.806 80.3578 151.406 81.2128C153.555 84.042 155.299 87.3591 155.402 90.9084C155.846 91.235 156.488 90.81 156.709 90.3064C156.929 89.8027 156.937 89.2125 157.216 88.7324C157.539 88.1776 158.157 87.8825 158.641 87.4654C159.87 86.4069 160.177 84.6244 160.129 83.0071C160.082 81.3899 159.767 79.749 160.074 78.1593C160.259 77.1835 160.677 76.2706 160.905 75.3065C161.133 74.3425 161.161 73.2604 160.621 72.4301C159.834 71.2103 158.177 70.9703 156.732 70.8562C155.091 70.7145 153.622 70.8955 152.575 69.5144C152.084 68.7937 151.531 68.1169 150.922 67.4919C150.713 67.2872 148.607 65.9887 148.607 65.9022Z" fill="#512E4E"/>
<path opacity="0.1" d="M105.821 148.881L101.708 141.279L100.405 153.009C100.405 153.009 101.129 158.219 100.983 159.018C100.838 159.816 103.952 166.978 103.952 166.978C103.952 166.978 114.238 185.291 118.438 186.235L132.629 176.099L128.866 171.322C128.866 171.322 127.563 170.814 127.236 171.322C127.236 171.322 120.249 159.305 119.524 158.435C118.8 157.566 118.942 155.83 118.942 155.83C118.942 155.83 117.855 154.673 118.217 153.587C118.58 152.501 116.119 148.736 116.119 148.736L118.363 146.638L105.821 148.881Z" fill="black"/>
<path d="M101.924 140.413L100.838 141.279L99.5348 153.009C99.5348 153.009 100.259 158.219 100.113 159.018C99.9678 159.816 103.086 166.978 103.086 166.978C103.086 166.978 113.368 185.291 117.568 186.235L131.763 176.099L127.996 171.322C127.996 171.322 126.693 170.814 126.366 171.322C126.366 171.322 119.379 159.305 118.654 158.435C117.93 157.566 118.076 155.83 118.076 155.83C118.076 155.83 116.989 154.673 117.351 153.587C117.714 152.501 115.249 148.736 115.249 148.736L117.493 146.638L101.924 140.413Z" fill="white"/>
<path opacity="0.1" d="M169.345 186.365C170.132 187.321 169.636 191.614 169.636 191.614L167.463 195.211C167.463 195.211 167.593 197.532 167.601 200.661L163.948 201.802C163.618 201.905 163.268 201.927 162.927 201.868C162.586 201.808 162.265 201.668 161.989 201.459C161.714 201.25 161.493 200.978 161.344 200.666C161.195 200.354 161.123 200.011 161.133 199.665L161.763 179.357L170.286 182.615C169.561 183.119 170.356 184.354 170.356 184.354C170.356 184.354 168.55 185.409 169.345 186.365Z" fill="black"/>
<path d="M169.782 185.928C170.569 186.884 170.073 191.181 170.073 191.181L167.9 194.778C167.9 194.778 168.03 197.096 168.042 200.228L164.322 201.389C163.998 201.489 163.656 201.511 163.322 201.452C162.989 201.393 162.674 201.256 162.405 201.051C162.135 200.846 161.918 200.58 161.773 200.275C161.627 199.969 161.556 199.633 161.566 199.295L162.2 178.924L170.727 182.182C169.998 182.686 170.793 183.918 170.793 183.918C170.793 183.918 168.994 184.976 169.782 185.928Z" fill="white"/>
<path d="M172.604 176.248C172.604 176.248 172.026 179.943 170.577 180.16C169.128 180.376 168.479 186.137 167.034 185.932C165.589 185.728 166.546 180.577 166.597 179.577C166.648 178.578 165.023 174.438 166.239 173.498C167.455 172.558 171.305 173.498 171.305 173.498L172.604 176.248Z" fill="#CF6F80"/>
<path opacity="0.1" d="M175.687 147.795L178.418 142.286C178.418 142.286 179.505 146.485 179.505 148.728C179.505 150.971 181.024 151.191 181.024 151.191C181.024 151.191 182.69 153.158 181.812 154.591C180.934 156.023 180.58 159.588 180.58 159.588C180.58 159.588 180.867 166.391 179.564 167.332C178.261 168.272 177.989 170.519 177.989 170.519C177.989 170.519 175.596 174.789 175.671 175.804C175.746 176.819 172.341 183.693 172.341 183.693C172.341 183.693 174.006 175.151 164.302 171.46C164.302 171.46 164.227 168.56 164.952 167.765C165.676 166.97 166.806 166.608 166.097 162.59C165.389 158.573 165.893 153.772 165.893 152.808C165.893 151.844 168.065 145.832 168.065 145.832L175.687 147.795Z" fill="black"/>
<path d="M176.868 141.499L179.253 142.286C179.253 142.286 180.343 146.485 180.343 148.728C180.343 150.971 181.863 151.191 181.863 151.191C181.863 151.191 183.528 153.158 182.65 154.591C181.772 156.023 181.422 159.588 181.422 159.588C181.422 159.588 181.709 166.392 180.406 167.332C179.103 168.272 178.812 170.519 178.812 170.519C178.812 170.519 176.423 174.789 176.497 175.804C176.572 176.819 173.163 183.693 173.163 183.693C173.163 183.693 174.832 175.151 165.125 171.46C165.125 171.46 165.054 168.56 165.778 167.765C166.503 166.97 167.632 166.608 166.924 162.59C166.215 158.573 166.719 153.772 166.719 152.808C166.719 151.844 168.892 145.832 168.892 145.832L176.868 141.499Z" fill="white"/>
<path opacity="0.1" d="M124.177 284.285C124.177 284.285 127.98 281.896 130.476 283.632C132.971 285.367 124.177 284.285 124.177 284.285Z" fill="black"/>
<path opacity="0.1" d="M153.725 276.899C153.725 276.899 157.09 276.466 159.917 279.508C162.743 282.55 153.725 276.899 153.725 276.899Z" fill="black"/>
<g opacity="0.1">
<path opacity="0.1" d="M158.649 86.6037C158.165 87.0208 157.543 87.3198 157.22 87.8746C156.945 88.3508 156.937 88.9371 156.716 89.4486C156.496 89.9601 155.854 90.3772 155.41 90.0546C155.307 86.5132 153.559 83.1882 151.414 80.355C150.814 79.5 150.085 78.7434 149.253 78.1122C148.41 77.479 147.362 77.1829 146.312 77.2819C145.131 77.4432 144.092 78.2459 142.899 78.3443C141.325 78.4781 139.912 77.3881 138.349 77.3331C137.714 77.3394 137.087 77.4813 136.512 77.7494C135.936 78.0175 135.424 78.4054 135.011 78.8873C134.189 79.8562 133.579 80.9861 133.219 82.2045C132.601 84.0533 132.264 85.9846 132.22 87.9337C132.196 89.0315 132.094 90.4008 131.078 90.8101C131.102 91.1008 131.102 91.3929 131.078 91.6836C132.102 91.2901 132.204 89.905 132.227 88.8033C132.271 86.8542 132.608 84.9228 133.227 83.0741C133.587 81.8545 134.197 80.7233 135.018 79.753C135.433 79.2724 135.945 78.8856 136.52 78.6183C137.096 78.3509 137.722 78.2093 138.357 78.2027C139.931 78.2578 141.348 79.3438 142.907 79.2139C144.088 79.1156 145.135 78.3089 146.32 78.1515C147.37 78.0525 148.418 78.3486 149.261 78.9818C150.093 79.613 150.822 80.3697 151.422 81.2247C153.567 84.0539 155.315 87.371 155.417 90.9202C155.862 91.2468 156.504 90.8219 156.724 90.3182C156.945 89.8145 156.953 89.2243 157.228 88.7442C157.551 88.1894 158.173 87.8943 158.657 87.4772C159.885 86.4187 160.192 84.6362 160.145 83.019C160.145 82.9678 160.145 82.9167 160.145 82.8694C160.07 84.2703 159.696 85.6986 158.649 86.6037Z" fill="black"/>
<path opacity="0.1" d="M129.59 86.3243C128.685 85.3288 127.449 84.6638 126.618 83.6092C125.919 82.6757 125.519 81.5519 125.472 80.3865C125.349 81.8428 125.755 83.2948 126.618 84.4749C127.449 85.5334 128.685 86.1984 129.59 87.1939C130.459 88.1677 130.981 89.402 131.074 90.7038C131.134 89.9116 131.034 89.1153 130.779 88.3628C130.524 87.6102 130.12 86.9169 129.59 86.3243Z" fill="black"/>
<path opacity="0.1" d="M160.913 74.4448C160.681 75.4089 160.267 76.3257 160.078 77.2976C159.966 77.9471 159.925 78.6068 159.956 79.2651C159.969 78.8901 160.01 78.5166 160.078 78.1476C160.267 77.1717 160.681 76.2588 160.913 75.2948C161.048 74.763 161.092 74.2122 161.043 73.6657C161.018 73.9282 160.975 74.1886 160.913 74.4448Z" fill="black"/>
</g>
<path opacity="0.1" d="M53.2493 300.284C74.4334 300.284 91.6066 297.527 91.6066 294.126C91.6066 290.725 74.4334 287.968 53.2493 287.968C32.0651 287.968 14.8919 290.725 14.8919 294.126C14.8919 297.527 32.0651 300.284 53.2493 300.284Z" fill="#B02828"/>
<path d="M54.4854 176.158H52.0172V231.707H54.4854V176.158Z" fill="#535461"/>
<path d="M69.9952 231.538L69.8416 234.04L69.6212 237.582L69.5307 239.053L69.3142 242.595L69.2197 244.066L68.9992 247.608L66.5114 287.771C66.4032 289.499 65.6404 291.121 64.3782 292.307C63.1159 293.493 61.4491 294.153 59.7169 294.154H46.7816C45.0498 294.153 43.3835 293.492 42.1219 292.307C40.8603 291.121 40.0983 289.499 39.9911 287.771L37.515 247.58L37.2946 244.039L37.2041 242.567L36.9836 239.026L36.8931 237.554L36.6726 234.013L36.5152 231.51C36.4878 231.028 36.5592 230.546 36.725 230.093C36.8907 229.64 37.1474 229.226 37.4791 228.875C37.8109 228.525 38.2107 228.246 38.6542 228.055C39.0977 227.865 39.5754 227.767 40.058 227.768H66.5153C66.9961 227.772 67.471 227.875 67.9106 228.069C68.3502 228.264 68.7453 228.547 69.0713 228.9C69.3974 229.253 69.6476 229.67 69.8065 230.123C69.9654 230.577 70.0296 231.058 69.9952 231.538Z" fill="#3F3D56"/>
<path d="M69.8417 234.04L69.6212 237.57H36.8774L36.6569 234.04H69.8417Z" fill="#9D9CB5"/>
<path d="M69.5307 239.042L69.3142 242.575H37.1883L36.9679 239.042H69.5307Z" fill="#9D9CB5"/>
<path d="M69.2197 244.051L69.0032 247.58H37.4993L37.2789 244.051H69.2197Z" fill="#9D9CB5"/>
<path d="M32.8897 196.977C47.2619 207.373 53.2611 223.632 53.2611 223.632C53.2611 223.632 35.9405 223.038 21.5643 212.642C7.1882 202.246 1.20077 185.991 1.20077 185.991C1.20077 185.991 18.5135 186.581 32.8897 196.977Z" fill="#B02828"/>
<path d="M1.18896 185.991C1.18896 185.991 19.1709 195.966 24.9379 204.226C30.7049 212.485 53.2611 223.632 53.2611 223.632" stroke="#535461" stroke-width="2" stroke-miterlimit="10"/>
<path d="M42.168 176.036C49.9898 181.69 53.2611 190.54 53.2611 190.54C53.2611 190.54 43.8331 190.217 36.0074 184.563C28.1816 178.908 24.9182 170.055 24.9182 170.055C24.9182 170.055 34.3422 170.378 42.168 176.036Z" fill="#B02828"/>
<path d="M24.9182 170.055C24.9182 170.055 34.7044 175.485 37.8418 179.979C40.9792 184.472 53.2611 190.54 53.2611 190.54" stroke="#535461" stroke-width="2" stroke-miterlimit="10"/>
<path d="M64.6179 190.091C55.6309 199.964 53.7296 212.867 53.7296 212.867C53.7296 212.867 66.4012 209.758 75.3804 199.881C84.3595 190.005 86.2687 177.106 86.2687 177.106C86.2687 177.106 73.605 180.219 64.6179 190.091Z" fill="#B02828"/>
<path d="M86.2766 177.11C86.2766 177.11 74.5694 187.231 71.5934 194.203C68.6174 201.176 53.7296 212.867 53.7296 212.867" stroke="#535461" stroke-width="2" stroke-miterlimit="10"/>
<path d="M394.521 186.617C394.521 186.617 388.022 154.296 390.51 150.274C390.51 150.274 390.6 146.536 390.451 141.771C390.451 141.59 390.451 141.409 390.451 141.224C390.888 141.516 391.345 141.779 391.817 142.011C394.109 143.188 396.74 143.528 399.257 142.971L397.288 140.779C396.816 140.256 396.324 139.689 396.222 138.997C396.119 138.304 396.403 137.686 396.647 137.069C398.517 132.347 398.615 126.409 395.013 122.805C391.97 119.775 391.23 115.864 387.927 113.097C385.514 111.071 384.188 108.1 382.936 105.228C381.877 102.8 380.81 100.352 380.204 97.7788C379.731 95.768 379.543 93.6865 378.893 91.723C378.244 89.7595 377.027 87.851 375.126 86.9735C374.449 86.6627 373.697 86.4856 373.079 86.0724C372.268 85.5255 371.78 84.6362 371.193 83.8571C368.213 79.9222 358.234 82.2399 353.51 83.8374C352.226 84.2397 351.037 84.8984 350.015 85.7734L350.058 85.7026C350.094 85.6436 350.137 85.5845 350.176 85.5255C349.659 85.9434 349.213 86.4416 348.854 87.0011C348.165 88.0911 347.877 89.362 347.303 90.5425C346.61 91.9394 342.756 95.8389 344.413 97.4089C344.529 97.5143 344.662 97.5995 344.807 97.6607C345.429 97.9195 346.114 97.988 346.775 97.8575L346.704 98.0267C346.138 99.4119 345.848 100.894 345.85 102.39C345.85 108.855 351.184 114.097 357.77 114.097C359.008 114.098 360.239 113.908 361.419 113.534C361.446 113.684 361.47 113.833 361.498 113.983C361.498 114.042 361.517 114.101 361.525 114.16L361.317 114.451C361.306 114.433 361.294 114.416 361.281 114.4L355.101 123.033C354.156 123.698 348.716 127.633 348.409 130.584C348.086 133.815 347.763 137.596 347.763 137.596L347.72 138.407C347.45 138.632 347.134 138.797 346.794 138.888C346.454 138.98 346.099 138.997 345.752 138.938C343.823 138.623 343.823 146.021 343.823 146.021C343.823 146.021 342.539 147.201 341.658 146.178C340.776 145.155 338.445 148.622 338.445 148.622L323.841 149.251L323.506 149.271L322.719 146.835C322.634 146.578 322.452 146.365 322.211 146.242C321.97 146.119 321.69 146.096 321.432 146.178C321.371 146.198 321.312 146.223 321.255 146.253L321.2 146.284L321.097 146.355L321.046 146.402C321.018 146.428 320.992 146.455 320.967 146.485L320.92 146.54L320.896 146.564C320.806 146.689 320.745 146.834 320.721 146.987C320.696 147.141 320.708 147.297 320.755 147.445L321.432 149.534C318.613 150.101 315.732 151.699 318.082 156.098L306.17 153.898L310.024 157.133L329.919 161.237C329.655 161.709 329.828 162.394 330.651 163.358C334.194 167.517 340.65 168.646 343.248 168.937C343.934 170.472 344.791 171.924 345.803 173.266L345.578 177.409C345.578 177.409 339 208.991 337.796 210.592C338.404 209.903 338.961 209.171 339.461 208.4C337.552 214.889 334.883 223.77 334.182 225.1C333.056 227.225 332.013 235.823 333.296 236.374C333.69 236.543 334.816 236.46 336.422 236.338V237.05L336.351 264.04C336.351 264.04 336.674 280.594 335.788 282.172C334.903 283.75 334.666 287.059 334.666 287.059C334.666 287.059 331.124 293.587 328.317 296.212C328.298 296.232 328.277 296.25 328.254 296.267L328.167 295.653C328.167 295.653 324.794 299.91 317.33 299.67C317.33 299.67 312.838 302.59 319.499 302.747C326.16 302.905 334.666 302.511 334.666 302.511C334.666 302.511 340.607 293.461 345.582 294.642V301.5H347.106V294.531C347.812 294.066 348.417 293.463 348.883 292.758C349.349 292.052 349.667 291.259 349.818 290.427C349.948 289.57 349.853 288.693 349.541 287.884C349.229 287.074 348.711 286.36 348.039 285.812C347.737 285.539 347.494 285.206 347.327 284.835C347.16 284.464 347.071 284.062 347.066 283.655L347.011 283.703C347.011 283.565 346.976 283.423 346.96 283.278C346.523 279.736 345.976 272.429 347.909 267.023C350.558 259.609 351.361 249.284 349.432 243.138C348.81 241.173 348.299 239.175 347.901 237.153C347.854 236.897 347.81 236.653 347.771 236.425C349.09 236.603 350.395 236.866 351.68 237.212C356.148 238.443 365.922 238.672 374.268 238.605C374.287 238.833 374.311 239.073 374.339 239.313C374.487 240.981 374.798 242.631 375.268 244.24C376.315 247.387 376.795 261.266 376.795 261.266C376.795 261.266 378.145 272.677 377.409 277.32C377.015 279.901 376.622 282.495 376.397 285.099V285.151C376.397 285.151 374.185 291.446 372.567 294.866C372.528 294.952 372.484 295.039 372.445 295.122C372.014 295.161 371.589 295.255 371.181 295.401C371.181 295.401 369.012 299.729 366.851 300.446C364.69 301.162 365.407 303.519 370.3 302.653C375.193 301.787 382.582 301.079 382.582 301.079L382.9 296.664L384.404 294.783L384.01 299.186L385.613 298.872L385.4 293.516L387.86 290.439C387.86 290.439 390.832 287.795 386.416 282.593V282.707C386.368 282.632 386.325 282.554 386.274 282.479V282.455C385.542 281.322 384.959 279.209 386.026 275.459C387.955 268.683 389.077 262.533 389.077 262.533C389.077 262.533 393.383 246.057 388.207 238.262H388.435C387.905 237.166 387.53 236 387.321 234.8C387.295 234.658 387.271 234.512 387.25 234.363C391.08 234.143 394.84 233.45 397.906 231.955C397.895 231.939 396.048 192.842 394.521 186.617ZM345.893 159.348V159.427L345.106 159.466L345.893 159.348ZM343.193 159.722C343.063 159.751 342.942 159.808 342.839 159.891C342.5 160.37 342.288 160.926 342.221 161.508L340.992 161.233C340.992 161.233 340.13 161.048 338.89 160.839L338.304 160.249C339.918 160.115 341.595 159.919 343.193 159.722Z" fill="url(#paint1_linear)"/>
<path d="M383.829 293.571L383.361 299.147L384.932 298.832L384.695 292.784L383.829 293.571Z" fill="#B02828"/>
<path d="M347.995 267.097C346.102 272.488 346.637 279.764 347.062 283.297C347.22 284.604 347.366 285.399 347.366 285.399C347.366 285.399 344.535 291.844 344.299 292.088C344.063 292.332 335.969 297.27 335.969 297.27L330.313 300.572C330.313 300.572 324.573 298.057 327.325 297.191C327.887 296.966 328.393 296.621 328.809 296.18C331.564 293.563 335.025 287.059 335.025 287.059C335.025 287.059 335.261 283.758 336.127 282.188C336.993 280.618 336.678 264.119 336.678 264.119L336.745 237.224V233.718L347.511 233.796C347.579 234.987 347.734 236.17 347.976 237.338C348.362 239.353 348.863 241.345 349.476 243.303C351.373 249.438 350.586 259.712 347.995 267.097Z" fill="#FFB0B1"/>
<path opacity="0.1" d="M347.366 285.399C347.366 285.399 344.535 291.844 344.299 292.088C344.063 292.332 335.969 297.27 335.969 297.27L330.313 300.571C330.313 300.571 324.573 298.057 327.325 297.191C327.887 296.966 328.393 296.621 328.809 296.18L329.053 297.9L330.939 297.821L347.078 283.305C347.22 284.604 347.366 285.399 347.366 285.399Z" fill="black"/>
<path d="M347.169 283.671L330.939 298.285L329.053 298.364L328.659 295.61C328.659 295.61 325.36 299.851 318.031 299.615C318.031 299.615 313.63 302.523 320.152 302.681C326.675 302.838 335.005 302.444 335.005 302.444C335.005 302.444 340.823 293.394 345.693 294.575V301.41H347.188V294.512C347.884 294.044 348.478 293.44 348.933 292.737C349.389 292.033 349.698 291.245 349.842 290.419C349.971 289.569 349.88 288.699 349.575 287.894C349.271 287.089 348.765 286.376 348.106 285.823C347.811 285.547 347.576 285.214 347.415 284.844C347.254 284.474 347.17 284.075 347.169 283.671Z" fill="#B02828"/>
<path d="M385.325 275.502C384.278 279.24 384.849 281.346 385.565 282.475V282.498C386.484 283.893 387.123 285.452 387.447 287.09L387.51 287.445L380.125 298.207L376.118 299.781C376.118 299.781 369.674 297.581 370.851 296.951C371.146 296.798 371.607 295.979 372.134 294.85C373.709 291.446 375.882 285.166 375.882 285.166V285.115C376.11 282.522 376.472 279.937 376.874 277.363C377.594 272.732 376.271 261.364 376.271 261.364C376.271 261.364 375.799 247.541 374.775 244.397C374.313 242.798 374.006 241.159 373.858 239.502C373.646 237.534 373.598 235.913 373.598 235.913C373.598 235.913 377.842 230.011 385.62 236.385C386.243 236.894 386.79 237.487 387.246 238.148C392.62 245.79 388.293 262.623 388.293 262.623C388.293 262.623 387.211 268.746 385.325 275.502Z" fill="#FFB0B1"/>
<path opacity="0.1" d="M387.522 287.445L380.137 298.207L376.13 299.781C376.13 299.781 369.686 297.581 370.863 296.951C371.158 296.798 371.618 295.979 372.146 294.85C374.874 294.827 376.287 297.424 376.287 297.424L379.743 296.873C379.743 296.873 384.302 287.917 385.325 287.37C386.349 286.823 385.483 283.282 385.483 283.282V282.38C385.51 282.412 385.534 282.447 385.565 282.479V282.502C386.484 283.897 387.123 285.456 387.447 287.095L387.522 287.445Z" fill="black"/>
<path d="M376.523 297.656C376.523 297.656 374.555 294.043 370.784 295.377C370.784 295.377 368.662 299.706 366.54 300.406C364.418 301.107 365.127 303.467 369.922 302.606C374.716 301.744 381.944 301.032 381.944 301.032L382.259 296.629L387.132 290.423C387.132 290.423 390.037 287.791 385.715 282.609V283.51C385.715 283.51 386.581 287.051 385.558 287.598C384.534 288.145 379.991 297.105 379.991 297.105L376.523 297.656Z" fill="#B02828"/>
<path opacity="0.1" d="M347.523 233.788C347.591 234.979 347.746 236.162 347.988 237.33C343.555 236.681 339.441 237.003 336.745 237.216V233.71L347.523 233.788Z" fill="black"/>
<path opacity="0.1" d="M387.683 239.128C387.683 239.128 381.385 239.435 373.874 239.498C373.661 237.531 373.614 235.909 373.614 235.909C373.614 235.909 377.858 230.007 385.636 236.382C386.258 236.89 386.806 237.483 387.262 238.144C387.384 238.48 387.525 238.808 387.683 239.128Z" fill="black"/>
<path d="M387.683 238.42C387.683 238.42 360.096 239.754 351.688 237.397C343.279 235.04 334.946 237.082 333.69 236.535C332.434 235.988 333.454 227.422 334.556 225.301C335.658 223.18 341.705 201.731 341.705 201.731L347.523 171.409L353.652 169.72L354.085 169.598L364.765 166.655L372.591 164.495C372.591 164.495 388.152 225.222 386.817 229.7C386.333 231.415 386.254 233.219 386.589 234.969C386.793 236.164 387.161 237.325 387.683 238.42Z" fill="#B02828"/>
<path d="M327.242 150.672C327.242 150.672 321.731 156.574 325.904 159.864C330.076 163.153 332.82 160.178 332.82 160.178L327.242 150.672Z" fill="#C7DAF5"/>
<path opacity="0.1" d="M327.242 150.672C327.242 150.672 321.731 156.574 325.904 159.864C330.076 163.153 332.82 160.178 332.82 160.178L327.242 150.672Z" fill="black"/>
<path d="M371.768 111.866C371.768 111.866 371.122 112.48 370.15 113.385C368.764 114.679 366.713 116.572 364.895 118.158C362.375 120.349 360.297 121.959 361.041 120.585C361.785 119.212 361.643 116.82 361.273 114.581C361.246 114.431 361.222 114.282 361.194 114.136C360.888 112.492 360.482 110.868 359.978 109.273C359.978 109.273 364.048 104.016 366.3 101.942C367.139 101.155 367.725 100.832 367.761 101.379C367.8 102.115 368.351 103.74 369.036 105.464C369.056 105.519 369.075 105.57 369.099 105.625C369.556 106.805 370.071 108.017 370.524 109.064C371.217 110.669 371.768 111.866 371.768 111.866Z" fill="#FFB0B1"/>
<path opacity="0.1" d="M369.099 105.625C368.717 107.681 367.788 109.598 366.412 111.173C365.035 112.748 363.26 113.925 361.273 114.581C360.96 112.785 360.528 111.011 359.978 109.273C359.978 109.273 367.643 99.3763 367.761 101.379C367.788 102.139 368.387 103.823 369.099 105.625Z" fill="black"/>
<path opacity="0.1" d="M360.51 117.225L361.502 115.828C361.502 115.828 362.159 119.834 364.576 118.067C366.993 116.3 367.111 131.363 367.111 131.363L364.517 170.134L345.771 169.012L346.303 150.278L348.425 140.834L353.672 127.106L356.794 122.569L360.51 117.225Z" fill="black"/>
<path d="M367.111 131.603L364.749 166.659L364.501 170.374L354.05 169.748L353.656 169.724L345.783 169.252L346.315 150.514L348.436 141.07L353.684 127.342L356.805 122.805L360.521 117.441L361.513 116.048C361.513 116.048 362.171 120.054 364.588 118.287L364.639 118.252C367.001 116.757 367.111 131.603 367.111 131.603Z" fill="#B02828"/>
<path d="M348.7 137.789C348.7 137.789 347.759 139.756 345.87 139.438C343.98 139.119 343.984 146.52 343.984 146.52C343.984 146.52 342.728 147.701 341.862 146.678C340.996 145.655 338.713 149.113 338.713 149.113L324.408 149.743C324.408 149.743 330.773 152.651 329.525 161.449C329.525 161.449 351.137 160.111 351.845 158.069C352.554 156.027 348.7 137.789 348.7 137.789Z" fill="white"/>
<path opacity="0.03" d="M348.7 137.789C348.7 137.789 347.759 139.756 345.87 139.438C343.98 139.119 343.984 146.52 343.984 146.52C343.984 146.52 342.728 147.701 341.862 146.678C340.996 145.655 338.713 149.113 338.713 149.113L324.408 149.743C324.408 149.743 330.773 152.651 329.525 161.449C329.525 161.449 351.137 160.111 351.845 158.069C352.554 156.027 348.7 137.789 348.7 137.789Z" fill="black"/>
<path d="M307.127 154.366L310.898 157.585L341.941 164.105L338.091 160.178L307.127 154.366Z" fill="white"/>
<path d="M360.569 118.465C360.053 119.252 358.577 123.281 357.345 126.799C356.317 129.73 355.459 132.307 355.459 132.307C355.459 132.307 353.455 145.348 352.432 147.705C351.408 150.062 351.963 159.254 351.963 159.254L348.149 181.954C348.149 181.954 346.421 193.66 343.752 200.653C341.118 207.535 338.186 210.761 338.095 210.864C339.276 209.266 345.712 177.811 345.712 177.811L347.838 138.139C347.838 138.139 348.149 134.369 348.464 131.147C348.779 127.924 355.156 123.525 355.156 123.525L361.305 114.785C361.923 115.612 361.509 117.052 360.569 118.465Z" fill="white"/>
<path d="M344.535 169.449C344.535 169.449 335.481 169.055 331.096 163.791C326.711 158.526 341.232 161.689 341.232 161.689L345.008 162.555L344.535 169.449Z" fill="#FFB0B1"/>
<path opacity="0.1" d="M386.817 229.704C386.333 231.419 386.254 233.223 386.589 234.973C376.712 235.673 366.147 233.005 366.147 233.005C364.178 234.815 358.994 237.483 358.994 237.483L356.168 202.463C354.361 197.741 353.652 173.002 353.652 173.002C353.652 173.002 353.814 171.708 354.046 169.768C354.046 169.72 354.046 169.669 354.066 169.622C354.77 164.204 356.168 154.032 356.853 152.659C357.797 150.77 353.947 145.745 353.947 145.745L355.699 130.812L355.912 129.01C359.604 127.361 362.435 122.096 362.435 122.096L364.607 118.291C366.969 116.776 367.091 131.623 367.091 131.623L364.73 166.679L372.555 164.518C372.555 164.518 388.152 225.226 386.817 229.704Z" fill="black"/>
<path d="M396.954 232.124C386.187 237.468 366.619 232.517 366.619 232.517C364.651 234.327 359.466 236.995 359.466 236.995L356.636 201.975C354.833 197.253 354.125 172.514 354.125 172.514C354.125 172.514 356.4 154.056 357.345 152.171C357.62 151.62 357.486 150.801 357.16 149.92C355.553 145.725 354.962 141.209 355.435 136.742L356.191 130.324L356.4 128.526C360.096 126.873 362.927 121.608 362.927 121.608L364.895 118.162L368.516 111.811L370.233 108.804L370.524 109.068L372.748 111.083C372.748 111.083 373.693 111.87 375.11 113.05C378.192 115.647 383.518 120.219 386.266 123.017C388.683 125.48 389.447 135.062 389.667 142.275C389.813 147.024 389.726 150.746 389.726 150.746C387.29 154.756 393.663 186.947 393.663 186.947C395.147 193.168 396.954 232.124 396.954 232.124Z" fill="white"/>
<path opacity="0.03" d="M376.287 121.53C376.287 121.53 368.898 135.589 369.756 140.933C370.615 146.276 373.055 152.324 371.878 153.737C371.474 154.272 370.951 154.707 370.351 155.006C369.75 155.306 369.089 155.463 368.418 155.464C367.237 155.543 364.088 157.743 364.088 157.979C364.088 158.215 361.179 158.215 358.577 159.317C355.975 160.418 352.133 161.044 352.133 161.044C352.133 161.044 344.653 160.808 343.956 161.516C343.26 162.224 342.543 166.462 344.035 169.842C345.527 173.223 347.184 175.745 348.436 176.205C349.688 176.666 357.632 174.006 364.076 173.376C370.52 172.746 377.515 167.643 377.515 167.643C377.515 167.643 385.219 164.888 386.569 160.257C387.919 155.626 384.92 130.171 384.92 130.171C384.92 130.171 382.652 118.307 376.287 121.53Z" fill="black"/>
<path opacity="0.03" d="M375.342 120.349C375.342 120.349 367.953 134.413 368.819 139.752C369.686 145.092 372.118 151.144 370.937 152.56C370.534 153.096 370.012 153.531 369.413 153.831C368.813 154.131 368.152 154.287 367.481 154.288C366.3 154.366 363.151 156.566 363.151 156.802C363.151 157.038 360.242 157.038 357.64 158.136C355.038 159.234 351.196 159.864 351.196 159.864C351.196 159.864 343.716 159.627 343.024 160.336C342.331 161.044 341.606 165.286 343.102 168.662C344.598 172.038 346.251 174.564 347.503 175.025C348.755 175.485 356.699 172.825 363.143 172.199C369.587 171.574 376.582 166.462 376.582 166.462C376.582 166.462 384.282 163.708 385.617 159.08C386.951 154.453 383.967 128.99 383.967 128.99C383.967 128.99 381.708 117.131 375.342 120.349Z" fill="black"/>
<path d="M376.055 120.822C376.055 120.822 368.666 134.885 369.532 140.224C370.398 145.564 372.831 151.616 371.654 153.029C371.251 153.566 370.729 154.002 370.128 154.302C369.527 154.603 368.865 154.759 368.194 154.76C367.013 154.839 363.863 157.038 363.863 157.27C363.863 157.503 360.958 157.507 358.352 158.608C355.746 159.71 351.908 160.336 351.908 160.336C351.908 160.336 344.429 160.1 343.732 160.808C343.035 161.516 342.319 165.758 343.811 169.134C345.303 172.51 346.96 175.036 348.212 175.497C349.464 175.957 357.408 173.297 363.852 172.668C370.296 172.038 377.291 166.935 377.291 166.935C377.291 166.935 384.995 164.18 386.345 159.549C387.695 154.917 384.715 129.463 384.715 129.463C384.715 129.463 382.416 117.619 376.055 120.822Z" fill="white"/>
<path opacity="0.1" d="M375.893 158.541C375.893 158.541 369.989 157.361 372.044 159.328C374.098 161.296 374.087 163.019 376.602 162.941C379.117 162.862 375.893 158.541 375.893 158.541Z" fill="black"/>
<path opacity="0.1" d="M385.872 200.873C385.872 200.873 383.204 202.679 388.309 206.842C393.415 211.005 385.872 200.873 385.872 200.873Z" fill="black"/>
<path opacity="0.1" d="M380.779 215.719C380.779 215.956 379.834 224.376 383.369 226.481C386.904 228.587 380.779 215.719 380.779 215.719Z" fill="black"/>
<path d="M324.652 149.723C321.802 149.822 315.645 150.691 318.838 156.645C321.66 161.914 326.404 158.392 329.073 155.72C328.422 153.229 326.839 151.083 324.652 149.723Z" fill="#FFB0B1"/>
<path d="M329.108 155.673L329.226 155.551L329.108 155.673Z" fill="#FFB0B1"/>
<path opacity="0.1" d="M375.11 113.29C372.087 115.356 369.552 117.099 369.056 117.461C367.702 118.464 365.119 124.355 363.454 127.361C362.127 129.781 357.817 130.403 356.191 130.556L356.4 128.758C360.096 127.105 362.927 121.841 362.927 121.841L370.233 109.036L372.748 111.323C372.748 111.323 373.693 112.11 375.11 113.29Z" fill="black"/>
<path d="M375.11 113.054C372.087 115.12 369.552 116.863 369.056 117.229C367.702 118.228 365.119 124.119 363.454 127.125C362.127 129.545 357.817 130.167 356.191 130.32L356.4 128.522C360.096 126.869 362.927 121.605 362.927 121.605L370.233 108.8L372.748 111.079C372.748 111.079 373.693 111.858 375.11 113.054Z" fill="#DCE7FF"/>
<path d="M369.292 103.028C369.294 105.39 368.577 107.697 367.237 109.642C365.655 111.943 363.3 113.6 360.599 114.313C357.899 115.027 355.032 114.749 352.52 113.53C350.007 112.312 348.014 110.233 346.904 107.671C345.793 105.11 345.638 102.235 346.466 99.5688C347.294 96.9026 349.051 94.6215 351.418 93.1394C353.785 91.6573 356.605 91.0724 359.366 91.4909C362.128 91.9094 364.648 93.3034 366.469 95.4202C368.29 97.5369 369.291 100.236 369.292 103.028Z" fill="#FFB0B1"/>
<path opacity="0.1" d="M389.667 142.278C388.069 141.296 386.767 139.898 385.9 138.233C385.243 136.935 384.806 135.436 383.684 134.515C382.672 133.689 381.322 133.488 380.062 133.118C375.921 131.894 372.449 128.117 372.319 123.804C372.256 121.774 372.89 119.747 372.602 117.737C372.439 116.599 371.986 115.521 371.288 114.608C370.941 114.172 370.56 113.762 370.15 113.385C369.599 112.865 369.02 112.361 368.516 111.811C368.199 111.469 367.922 111.093 367.69 110.689C367.503 110.358 367.351 110.009 367.237 109.646C366.45 107.238 367.166 104.381 366.3 101.946L366.253 101.812C365.926 100.946 365.261 100.081 364.336 100.014C363.411 99.9469 362.62 100.714 361.738 101.057C359.892 101.773 357.9 100.553 356.36 99.3094C354.821 98.066 353.085 96.6455 351.129 96.9209C349.834 97.1059 348.81 97.9873 347.617 98.4437C347.348 98.5479 347.07 98.6283 346.787 98.6838C347.796 96.1674 349.651 94.081 352.032 92.7831C354.413 91.4851 357.172 91.0565 359.835 91.571C362.498 92.0855 364.899 93.5109 366.624 95.6023C368.35 97.6938 369.293 100.321 369.292 103.032C369.293 103.85 369.207 104.667 369.036 105.468C369.056 105.523 369.075 105.574 369.099 105.629C369.556 106.809 370.071 108.021 370.524 109.068L372.748 111.083C372.748 111.083 373.693 111.87 375.11 113.05C378.192 115.647 383.518 120.219 386.266 123.017C388.683 125.488 389.439 135.066 389.667 142.278Z" fill="black"/>
<path d="M347.48 91.2547C348.043 90.1096 348.322 88.8268 348.995 87.7408C349.983 86.1668 351.708 85.1595 353.479 84.5496C358.104 82.956 367.879 80.6422 370.8 84.5496C371.374 85.3366 371.851 86.2101 372.646 86.7531C373.252 87.1663 373.984 87.3434 374.65 87.6542C376.511 88.5278 377.7 90.4323 378.334 92.3761C378.968 94.3199 379.157 96.4054 379.621 98.4083C380.216 100.978 381.259 103.413 382.298 105.833C383.522 108.69 384.821 111.653 387.183 113.672C390.407 116.426 391.12 120.326 394.112 123.348C397.654 126.936 397.54 132.858 395.714 137.56C395.474 138.178 395.202 138.824 395.296 139.481C395.391 140.138 395.879 140.736 396.34 141.259L398.276 143.443C393.694 144.549 388.51 142.156 386.376 137.958C385.719 136.659 385.282 135.164 384.156 134.239C383.148 133.413 381.794 133.216 380.539 132.846C376.397 131.619 372.925 127.837 372.795 123.525C372.732 121.498 373.366 119.472 373.079 117.465C372.919 116.319 372.465 115.235 371.76 114.317C370.678 112.904 369.044 111.956 368.162 110.382C366.67 107.75 367.804 104.33 366.729 101.505C366.399 100.639 365.737 99.7737 364.812 99.7068C363.887 99.6399 363.096 100.407 362.21 100.75C360.368 101.466 358.376 100.25 356.837 99.0025C355.298 97.7551 353.562 96.3385 351.601 96.6179C350.306 96.7989 349.287 97.6803 348.094 98.1407C347.212 98.4791 345.425 98.7821 344.653 98.0384C343.024 96.5392 346.799 92.6555 347.48 91.2547Z" fill="#591D4B"/>
<path opacity="0.1" d="M387.471 136.66C386.809 135.361 386.376 133.866 385.25 132.945C384.243 132.119 382.889 131.918 381.629 131.548C377.492 130.324 374.02 126.543 373.886 122.23C373.823 120.204 374.457 118.173 374.173 116.167C374.008 115.028 373.554 113.951 372.854 113.038C371.768 111.626 370.134 110.677 369.256 109.103C367.765 106.475 368.898 103.055 367.82 100.226C367.493 99.3645 366.828 98.4989 365.906 98.428C364.985 98.3572 364.186 99.1324 363.304 99.4747C361.462 100.191 359.466 98.9711 357.931 97.7276C356.396 96.4842 354.652 95.0637 352.696 95.3391C351.4 95.5241 350.377 96.4055 349.188 96.8619C348.306 97.2003 346.515 97.5073 345.744 96.7636C344.122 95.1896 347.897 91.3137 348.574 89.9208C349.137 88.7718 349.416 87.493 350.094 86.4069C350.129 86.3479 350.168 86.2889 350.208 86.2299C349.701 86.6493 349.264 87.1459 348.913 87.7015C348.239 88.7875 347.96 90.0624 347.397 91.2154C346.716 92.6083 342.941 96.496 344.567 98.0582C345.354 98.8058 347.125 98.4989 348.007 98.1605C349.188 97.7001 350.219 96.8187 351.515 96.6377C353.483 96.3583 355.215 97.7788 356.75 99.0222C358.285 100.266 360.293 101.485 362.127 100.769C363.009 100.427 363.781 99.6557 364.726 99.7266C365.67 99.7974 366.3 100.659 366.643 101.525C367.717 104.35 366.584 107.769 368.075 110.402C368.957 111.948 370.591 112.916 371.673 114.337C372.378 115.255 372.832 116.339 372.992 117.485C373.28 119.492 372.646 121.518 372.709 123.544C372.839 127.873 376.311 131.639 380.452 132.866C381.7 133.236 383.062 133.433 384.07 134.259C385.199 135.184 385.644 136.679 386.29 137.978C388.423 142.176 393.608 144.569 398.19 143.463L397.277 142.432C393.305 142.491 389.285 140.232 387.471 136.66Z" fill="black"/>
<path opacity="0.1" d="M360.332 118.701C359.817 119.488 358.34 123.517 357.108 127.035C355.955 126.586 354.908 123.726 354.908 123.726L361.057 114.982C361.687 115.848 361.273 117.284 360.332 118.701Z" fill="black"/>
<path d="M360.569 118.464C360.053 119.251 358.577 123.281 357.345 126.799C356.191 126.354 355.144 123.489 355.144 123.489L361.293 114.75C361.923 115.612 361.509 117.052 360.569 118.464Z" fill="#DCE7FF"/>
<path d="M324.817 158.663L321.408 147.917C321.368 147.791 321.353 147.659 321.364 147.527C321.375 147.395 321.412 147.267 321.472 147.15C321.533 147.033 321.616 146.928 321.718 146.843C321.819 146.758 321.936 146.694 322.062 146.654C322.315 146.575 322.59 146.599 322.826 146.721C323.062 146.844 323.24 147.054 323.321 147.307L326.73 158.042L326.392 160.288L324.817 158.663Z" fill="#BE8B87"/>
<path opacity="0.1" d="M321.731 146.973C321.985 146.892 322.261 146.916 322.498 147.038C322.735 147.161 322.913 147.372 322.995 147.626L326.404 158.36L326.148 160.044L326.396 160.304L326.734 158.057L323.306 147.323C323.224 147.07 323.046 146.86 322.81 146.737C322.574 146.615 322.3 146.591 322.046 146.67C321.832 146.739 321.648 146.878 321.522 147.063C321.589 147.027 321.659 146.997 321.731 146.973Z" fill="white"/>
<path d="M324.817 158.663L326.73 158.057L326.451 159.899L326.392 160.304L325.833 159.722L324.817 158.663Z" fill="#EFC8C4"/>
<path d="M325.833 159.722C325.866 159.68 325.908 159.645 325.955 159.62C325.983 159.602 326.015 159.593 326.047 159.593C326.08 159.593 326.112 159.602 326.14 159.62C326.167 159.652 326.189 159.688 326.207 159.726C326.233 159.769 326.268 159.806 326.311 159.834C326.353 159.862 326.401 159.88 326.451 159.887L326.392 160.281L325.833 159.722Z" fill="#727A9C"/>
<path d="M321.388 151.734C321.388 151.734 328.226 151.695 326.616 154.603C325.006 157.51 322.491 157.861 322.491 157.861L321.388 151.734Z" fill="#FFB0B1"/>
<path d="M278.862 21.2332H278.567C266.821 21.2332 256.432 27.4464 250.457 36.6147C244.481 27.4464 234.092 21.2332 222.346 21.2332H222.051C213.235 21.3172 204.809 24.8754 198.603 31.1345C192.398 37.3936 188.914 45.8479 188.909 54.6601C188.909 65.6031 193.704 81.1302 203.053 93.9068C220.866 118.252 250.457 139.552 250.457 139.552C250.457 139.552 280.047 118.256 297.856 93.9068C307.209 81.1302 312 65.6031 312 54.6601C311.995 45.8486 308.512 37.3949 302.307 31.1359C296.102 24.8768 287.677 21.3182 278.862 21.2332ZM274.639 95.7798C273.301 95.7747 271.996 95.3654 270.895 94.6056C269.794 93.8457 268.949 92.7709 268.47 91.5222H261.447C260.985 91.5194 260.535 91.3722 260.16 91.1013C259.785 90.8304 259.505 90.4493 259.357 90.0112L257.2 83.5147L250.374 107.356C250.241 107.815 249.963 108.219 249.581 108.506C249.199 108.793 248.734 108.949 248.256 108.95H248.118C247.62 108.926 247.144 108.731 246.772 108.399C246.399 108.067 246.152 107.617 246.071 107.124L239.037 64.8319L233.896 89.8578C233.778 90.3332 233.504 90.7554 233.118 91.0571C232.732 91.3588 232.256 91.5226 231.766 91.5222H221.874C221.577 91.5348 221.281 91.4872 221.003 91.3825C220.726 91.2777 220.472 91.1178 220.258 90.9125C220.043 90.7072 219.873 90.4607 219.757 90.1878C219.64 89.9149 219.58 89.6213 219.58 89.3246C219.58 89.0279 219.64 88.7343 219.757 88.4614C219.873 88.1885 220.043 87.942 220.258 87.7367C220.472 87.5314 220.726 87.3716 221.003 87.2668C221.281 87.162 221.577 87.1144 221.874 87.127H230.034L237.316 53.4797C237.436 52.9822 237.725 52.5417 238.133 52.2335C238.542 51.9252 239.045 51.7684 239.556 51.7897C240.067 51.8111 240.555 52.0094 240.937 52.3507C241.318 52.6919 241.569 53.155 241.647 53.6607L248.831 96.8029L254.948 75.4718C255.075 75.0226 255.345 74.6265 255.716 74.3429C256.087 74.0592 256.54 73.9031 257.007 73.8979H257.05C257.513 73.898 257.964 74.0442 258.338 74.3155C258.713 74.5868 258.992 74.9695 259.137 75.4089L263.038 87.1388H268.383C268.763 85.9845 269.455 84.9577 270.382 84.1716C271.309 83.3855 272.436 82.8707 273.637 82.684C274.838 82.4974 276.068 82.6461 277.19 83.1138C278.312 83.5815 279.283 84.35 279.995 85.3345C280.708 86.3189 281.135 87.481 281.228 88.6926C281.322 89.9042 281.079 91.118 280.526 92.2002C279.973 93.2824 279.132 94.1909 278.095 94.8253C277.058 95.4598 275.866 95.7955 274.65 95.7955L274.639 95.7798Z" fill="#B02828"/>
<defs>
<linearGradient id="paint0_linear" x1="141.27" y1="305.903" x2="141.27" y2="63.7734" gradientUnits="userSpaceOnUse">
<stop stop-color="#808080" stop-opacity="0.25"/>
<stop offset="0.54" stop-color="#808080" stop-opacity="0.12"/>
<stop offset="1" stop-color="#808080" stop-opacity="0.1"/>
</linearGradient>
<linearGradient id="paint1_linear" x1="87869.9" y1="182691" x2="87869.9" y2="58403.8" gradientUnits="userSpaceOnUse">
<stop stop-color="#808080" stop-opacity="0.25"/>
<stop offset="0.54" stop-color="#808080" stop-opacity="0.12"/>
<stop offset="1" stop-color="#808080" stop-opacity="0.1"/>
</linearGradient>
</defs>
</svg>
