<svg width="23" height="23" viewBox="0 0 23 23" fill="none" xmlns="http://www.w3.org/2000/svg">
<path d="M11.5 0C8.37676 0 7.98513 0.0132519 6.75854 0.0692246C5.53451 0.125062 4.69851 0.319439 3.96701 0.60375C3.21079 0.897629 2.56944 1.29087 1.93016 1.9302C1.29083 2.56949 0.897584 3.21084 0.603705 3.96705C0.319394 4.69851 0.125018 5.53451 0.0691797 6.75854C0.013207 7.98513 0 8.37676 0 11.5C0 14.6231 0.013207 15.0148 0.0691797 16.2414C0.125018 17.4654 0.319394 18.3014 0.603705 19.0329C0.897584 19.7891 1.29083 20.4304 1.93016 21.0698C2.56944 21.7091 3.21079 22.1023 3.96701 22.3962C4.69851 22.6805 5.53451 22.8749 6.75854 22.9307C7.98513 22.9867 8.37676 22.9999 11.5 22.9999C14.6231 22.9999 15.0148 22.9867 16.2414 22.9307C17.4654 22.8749 18.3014 22.6805 19.0329 22.3962C19.7891 22.1023 20.4304 21.7091 21.0698 21.0698C21.7091 20.4304 22.1023 19.7891 22.3962 19.0329C22.6805 18.3014 22.8749 17.4654 22.9307 16.2414C22.9867 15.0148 22.9999 14.6231 22.9999 11.5C22.9999 8.37676 22.9867 7.98513 22.9307 6.75854C22.8749 5.53451 22.6805 4.69851 22.3962 3.96705C22.1023 3.21084 21.7091 2.56949 21.0698 1.9302C20.4304 1.29087 19.7891 0.897629 19.0329 0.60375C18.3014 0.319439 17.4654 0.125062 16.2414 0.0692246C15.0148 0.0132519 14.6231 0 11.5 0V0ZM11.5 2.07211C14.5706 2.07211 14.9343 2.08379 16.1469 2.13913C17.2681 2.1903 17.8771 2.37762 18.2823 2.53508C18.8191 2.74369 19.2022 2.99292 19.6046 3.39533C20.007 3.79774 20.2562 4.18088 20.4648 4.7176C20.6223 5.12284 20.8097 5.73176 20.8608 6.85297C20.9161 8.06563 20.9278 8.42936 20.9278 11.5C20.9278 14.5706 20.9161 14.9343 20.8608 16.1469C20.8097 17.2681 20.6223 17.8771 20.4648 18.2823C20.2562 18.8191 20.007 19.2022 19.6046 19.6046C19.2022 20.007 18.8191 20.2562 18.2823 20.4648C17.8771 20.6223 17.2681 20.8097 16.1469 20.8608C14.9345 20.9161 14.5708 20.9278 11.5 20.9278C8.42909 20.9278 8.0655 20.9161 6.85297 20.8608C5.73176 20.8097 5.12284 20.6223 4.7176 20.4648C4.18083 20.2562 3.79774 20.007 3.39528 19.6046C2.99287 19.2022 2.74365 18.8191 2.53508 18.2823C2.37758 17.8771 2.19026 17.2681 2.13909 16.1469C2.08375 14.9343 2.07207 14.5706 2.07207 11.5C2.07207 8.42936 2.08375 8.06563 2.13909 6.85297C2.19026 5.73176 2.37758 5.12284 2.53508 4.7176C2.74365 4.18088 2.99287 3.79774 3.39528 3.39533C3.79774 2.99292 4.18083 2.74369 4.7176 2.53508C5.12284 2.37762 5.73176 2.1903 6.85297 2.13913C8.06563 2.08379 8.42936 2.07211 11.5 2.07211Z" fill="white"/>
</svg>
